<svg xmlns="http://www.w3.org/2000/svg" style="display:none;">
  <symbol id="A" viewBox="0 0 32 32">
    <title>Accompagnateur-rice</title>
    <circle fill="#fff" cx="16" cy="16" r="15.25" />
    <path d="M16,1.5A14.5,14.5,0,1,1,1.5,16,14.51,14.51,0,0,1,16,1.5M16,0A16,16,0,1,0,32,16,16,16,0,0,0,16,0Z" />
    <circle cx="26.75" cy="26.8" r="5.25" />
  </symbol>

  <symbol id="CA" viewBox="0 0 32 32">
    <title>Caissier-e</title>
    <circle fill="#fff" cx="16" cy="16" r="15.25" />
    <path d="M16,1.5A14.5,14.5,0,1,1,1.5,16,14.51,14.51,0,0,1,16,1.5M16,0A16,16,0,1,0,32,16,16,16,0,0,0,16,0Z" />
    <path d="M21.24,20l1.34,1.32A6.23,6.23,0,0,1,20.15,23a8.24,8.24,0,0,1-3.17.59A8.45,8.45,0,0,1,13.59,23,7.42,7.42,0,0,1,11,21a7.12,7.12,0,0,1-1.51-2.88H7.06V17H9.25c0-.36-.05-.65-.05-.86s0-.49.05-.86H7.06V14.07h2.4A7,7,0,0,1,11,11.2a7.19,7.19,0,0,1,2.62-1.92A8.29,8.29,0,0,1,17,8.59a8.38,8.38,0,0,1,3.18.59,6.36,6.36,0,0,1,2.42,1.7l-1.34,1.33a5.48,5.48,0,0,0-4.16-1.75,5.83,5.83,0,0,0-3.36,1,5.23,5.23,0,0,0-2,2.62h6.66v1.18H11.39a5.81,5.81,0,0,0-.06.86,6,6,0,0,0,.06.86h7v1.18H11.68a5.25,5.25,0,0,0,2,2.63,5.9,5.9,0,0,0,3.36,1A5.5,5.5,0,0,0,21.24,20Z" />
  </symbol>

  <symbol id="CAA" viewBox="0 0 32 32">
    <title>Caissier-e accompagnateur-rice</title>
    <circle fill="#fff" cx="16" cy="16" r="15.25"/>
    <path d="M16,1.5A14.5,14.5,0,1,1,1.5,16,14.51,14.51,0,0,1,16,1.5M16,0A16,16,0,1,0,32,16,16,16,0,0,0,16,0Z"/>
    <circle cx="26.75" cy="26.8" r="5.25"/>
    <path d="M21.24,20l1.34,1.32A6.23,6.23,0,0,1,20.15,23a8.24,8.24,0,0,1-3.17.59A8.45,8.45,0,0,1,13.59,23,7.42,7.42,0,0,1,11,21a7.12,7.12,0,0,1-1.51-2.88H7.06V17H9.25c0-.36-.05-.65-.05-.86s0-.49.05-.86H7.06V14.07h2.4A7,7,0,0,1,11,11.2a7.19,7.19,0,0,1,2.62-1.92A8.29,8.29,0,0,1,17,8.59a8.38,8.38,0,0,1,3.18.59,6.36,6.36,0,0,1,2.42,1.7l-1.34,1.33a5.48,5.48,0,0,0-4.16-1.75,5.83,5.83,0,0,0-3.36,1,5.23,5.23,0,0,0-2,2.62h6.66v1.18H11.39a5.81,5.81,0,0,0-.06.86,6,6,0,0,0,.06.86h7v1.18H11.68a5.25,5.25,0,0,0,2,2.63,5.9,5.9,0,0,0,3.36,1A5.5,5.5,0,0,0,21.24,20Z"/>
  </symbol>

  <symbol id="CAF" viewBox="0 0 32 32">
    <title>Caissier-e en formation</title>
    <circle fill="#fff" cx="16" cy="16" r="15.25"/>
    <path d="M16,1.5A14.5,14.5,0,1,1,1.5,16,14.51,14.51,0,0,1,16,1.5M16,0A16,16,0,1,0,32,16,16,16,0,0,0,16,0Z"/>
    <circle fill="#fff" cx="26.75" cy="26.8" r="4.5"/>
    <path d="M26.75,23.05A3.75,3.75,0,1,1,23,26.8a3.75,3.75,0,0,1,3.75-3.75m0-1.5A5.25,5.25,0,1,0,32,26.8a5.25,5.25,0,0,0-5.25-5.25Z"/>
    <path d="M21.24,20l1.34,1.32A6.23,6.23,0,0,1,20.15,23a8.24,8.24,0,0,1-3.17.59A8.45,8.45,0,0,1,13.59,23,7.42,7.42,0,0,1,11,21a7.12,7.12,0,0,1-1.51-2.88H7.06V17H9.25c0-.36-.05-.65-.05-.86s0-.49.05-.86H7.06V14.07h2.4A7,7,0,0,1,11,11.2a7.19,7.19,0,0,1,2.62-1.92A8.29,8.29,0,0,1,17,8.59a8.38,8.38,0,0,1,3.18.59,6.36,6.36,0,0,1,2.42,1.7l-1.34,1.33a5.48,5.48,0,0,0-4.16-1.75,5.83,5.83,0,0,0-3.36,1,5.23,5.23,0,0,0-2,2.62h6.66v1.18H11.39a5.81,5.81,0,0,0-.06.86,6,6,0,0,0,.06.86h7v1.18H11.68a5.25,5.25,0,0,0,2,2.63,5.9,5.9,0,0,0,3.36,1A5.5,5.5,0,0,0,21.24,20Z"/>
  </symbol>

  <symbol id="CH" viewBox="0 0 32 32">
    <title>Chouettos</title>
    <circle fill="#fff" cx="16" cy="16" r="15.25"/>
    <path d="M16,1.5A14.5,14.5,0,1,1,1.5,16,14.51,14.51,0,0,1,16,1.5M16,0A16,16,0,1,0,32,16,16,16,0,0,0,16,0Z"/>
    <path d="M30.13,10.49a7.25,7.25,0,0,0-8.68-3.38c-2.92,1-4.46,3.27-5.4,6.33a10.47,10.47,0,0,0-1.37-3.14C11.17,5,4.65,6.05,2.32,10L.21,13.4c2-7,6.59-11.53,13.16-13.18,7.3-.22,15.9,3.62,18.4,13.05Zm-14.07.37a8.8,8.8,0,0,1,3.37-4.73,7.83,7.83,0,0,1,7.78-.46C20.94-.9,10.41-1.09,4.79,5.8,9.55,2.81,14.55,6.62,16.06,10.86Z"/>
    <path d="M21.07,15.59a2.76,2.76,0,0,1,3-2.83,2.88,2.88,0,1,1-.1,5.76A2.75,2.75,0,0,1,21.07,15.59Zm4.05.06C25,15,24.7,14.51,24,14.51a1.05,1.05,0,0,0-1.17,1.11,1,1,0,0,0,1.14,1.15C24.66,16.79,25,16.36,25.12,15.65Z"/>
    <path d="M8.67,12.76a2.88,2.88,0,1,1,0,5.76,2.88,2.88,0,1,1,0-5.76Zm1.18,2.89a1.07,1.07,0,0,0-1.14-1.14,1.05,1.05,0,0,0-1.15,1.13A1.06,1.06,0,0,0,8.7,16.78,1.07,1.07,0,0,0,9.85,15.65Z"/>
    <path d="M16.07,21.41a3.86,3.86,0,0,1-1.22-2.08,1.33,1.33,0,0,1,1.23-1.25c.56,0,1.32.62,1.22,1.27A3.68,3.68,0,0,1,16.07,21.41Z"/>
  </symbol>

  <symbol id="F" viewBox="0 0 32 32">
    <title>Formation</title>
    <circle fill="#fff" cx="16" cy="16" r="15.25"/>
    <path d="M16,1.5A14.5,14.5,0,1,1,1.5,16,14.51,14.51,0,0,1,16,1.5M16,0A16,16,0,1,0,32,16,16,16,0,0,0,16,0Z"/>
    <circle fill="#fff" cx="26.75" cy="26.8" r="4.5"/>
    <path d="M26.75,23.05A3.75,3.75,0,1,1,23,26.8a3.75,3.75,0,0,1,3.75-3.75m0-1.5A5.25,5.25,0,1,0,32,26.8a5.25,5.25,0,0,0-5.25-5.25Z"/>
  </symbol>

  <symbol id="GH" viewBox="0 0 32 32">
    <title>GH</title>
    <circle fill="#fff" cx="16" cy="16" r="15.25"/>
    <path d="M16,1.5A14.5,14.5,0,1,1,1.5,16,14.51,14.51,0,0,1,16,1.5M16,0A16,16,0,1,0,32,16,16,16,0,0,0,16,0Z"/>
    <path d="M12.94,15h1.73v3.92a5.63,5.63,0,0,1-1.77.93,7,7,0,0,1-2.08.32,5.65,5.65,0,0,1-2.71-.65,4.87,4.87,0,0,1-1.9-1.81,5.24,5.24,0,0,1,0-5.2,4.87,4.87,0,0,1,1.9-1.81A5.8,5.8,0,0,1,10.85,10a6,6,0,0,1,2.25.41,4.47,4.47,0,0,1,1.7,1.19l-1.15,1.13a3.72,3.72,0,0,0-2.72-1.13A3.86,3.86,0,0,0,9.08,12a3.21,3.21,0,0,0-1.26,1.22,3.5,3.5,0,0,0-.46,1.8,3.39,3.39,0,0,0,.46,1.77,3.26,3.26,0,0,0,1.26,1.24,3.72,3.72,0,0,0,1.84.45,3.91,3.91,0,0,0,2-.51Z"/>
    <path d="M25.82,10.14V20H24V15.76H18.9V20H17.07V10.14H18.9V14.2H24V10.14Z"/>
    <rect x="11.03" y="14.95" width="3.65" height="1.31"/>
  </symbol>

  <symbol id="GHA" viewBox="0 0 32 32">
    <title>GH accompagnateur-rice</title>
    <circle fill="#fff" cx="16" cy="16" r="15.25"/>
    <path d="M16,1.5A14.5,14.5,0,1,1,1.5,16,14.51,14.51,0,0,1,16,1.5M16,0A16,16,0,1,0,32,16,16,16,0,0,0,16,0Z"/>
    <path d="M12.94,15h1.73v3.92a5.52,5.52,0,0,1-1.77.93,7,7,0,0,1-2.08.32,5.65,5.65,0,0,1-2.71-.65,4.87,4.87,0,0,1-1.9-1.81,5.24,5.24,0,0,1,0-5.2,4.87,4.87,0,0,1,1.9-1.81A5.8,5.8,0,0,1,10.85,10a6,6,0,0,1,2.25.41,4.47,4.47,0,0,1,1.7,1.19l-1.15,1.13a3.72,3.72,0,0,0-2.72-1.13A3.86,3.86,0,0,0,9.08,12a3.21,3.21,0,0,0-1.26,1.22,3.5,3.5,0,0,0-.46,1.8,3.39,3.39,0,0,0,.46,1.77,3.26,3.26,0,0,0,1.26,1.24,3.72,3.72,0,0,0,1.84.45,3.91,3.91,0,0,0,2-.51Z"/>
    <path d="M25.82,10.14V20H24V15.76H18.9V20H17.07V10.14H18.9V14.2H24V10.14Z"/>
    <circle cx="26.75" cy="26.75" r="5.25"/>
    <rect x="11.03" y="14.95" width="3.65" height="1.31"/>
  </symbol>

  <symbol id="GHF" viewBox="0 0 32 32">
    <title>GH en formation</title>
    <circle fill="#fff" cx="16" cy="16" r="15.25"/>
    <path d="M16,1.5A14.5,14.5,0,1,1,1.5,16,14.51,14.51,0,0,1,16,1.5M16,0A16,16,0,1,0,32,16,16,16,0,0,0,16,0Z"/>
    <path d="M12.94,15h1.73v3.92a5.63,5.63,0,0,1-1.77.93,7,7,0,0,1-2.08.32,5.65,5.65,0,0,1-2.71-.65,4.87,4.87,0,0,1-1.9-1.81,5.24,5.24,0,0,1,0-5.2,4.87,4.87,0,0,1,1.9-1.81A5.8,5.8,0,0,1,10.85,10a6,6,0,0,1,2.25.41,4.47,4.47,0,0,1,1.7,1.19l-1.15,1.13a3.72,3.72,0,0,0-2.72-1.13A3.86,3.86,0,0,0,9.08,12a3.21,3.21,0,0,0-1.26,1.22,3.5,3.5,0,0,0-.46,1.8,3.39,3.39,0,0,0,.46,1.77,3.26,3.26,0,0,0,1.26,1.24,3.72,3.72,0,0,0,1.84.45,3.91,3.91,0,0,0,2-.51Z"/>
    <path d="M25.82,10.14V20H24V15.76H18.9V20H17.07V10.14H18.9V14.2H24V10.14Z"/>
    <circle fill="#fff" cx="26.75" cy="26.75" r="4.5"/>
    <path d="M26.75,23A3.75,3.75,0,1,1,23,26.75,3.75,3.75,0,0,1,26.75,23m0-1.5A5.25,5.25,0,1,0,32,26.75a5.25,5.25,0,0,0-5.25-5.25Z"/>
    <rect x="11.03" y="14.95" width="3.65" height="1.31"/>
  </symbol>

  <symbol id="P" viewBox="0 0 32 32">
    <title>PIAF</title>
    <circle fill="#fff" cx="16" cy="16" r="15.25"/>
    <path d="M16,1.5A14.5,14.5,0,1,1,1.5,16,14.51,14.51,0,0,1,16,1.5M16,0A16,16,0,1,0,32,16,16,16,0,0,0,16,0Z"/>
  </symbol>
</svg>
