<svg xmlns="http://www.w3.org/2000/svg" style="display:none;">
  <symbol id="F" viewBox="0 0 32 32">
    <title>Formateur·rice</title>
    <circle fill="#fff" cx="16" cy="16" r="15.25" />
    <path d="M16,1.5A14.5,14.5,0,1,1,1.5,16,14.51,14.51,0,0,1,16,1.5M16,0A16,16,0,1,0,32,16,16,16,0,0,0,16,0Z" />
    <circle cx="26.75" cy="26.8" r="5.25" />
  </symbol>

  <symbol id="CA" viewBox="0 0 32 32">
    <title>Caissier·ère</title>
    <circle fill="#fff" cx="16" cy="16" r="15.25" />
    <path d="M16,1.5A14.5,14.5,0,1,1,1.5,16,14.51,14.51,0,0,1,16,1.5M16,0A16,16,0,1,0,32,16,16,16,0,0,0,16,0Z" />
    <path d="M21.24,20l1.34,1.32A6.23,6.23,0,0,1,20.15,23a8.24,8.24,0,0,1-3.17.59A8.45,8.45,0,0,1,13.59,23,7.42,7.42,0,0,1,11,21a7.12,7.12,0,0,1-1.51-2.88H7.06V17H9.25c0-.36-.05-.65-.05-.86s0-.49.05-.86H7.06V14.07h2.4A7,7,0,0,1,11,11.2a7.19,7.19,0,0,1,2.62-1.92A8.29,8.29,0,0,1,17,8.59a8.38,8.38,0,0,1,3.18.59,6.36,6.36,0,0,1,2.42,1.7l-1.34,1.33a5.48,5.48,0,0,0-4.16-1.75,5.83,5.83,0,0,0-3.36,1,5.23,5.23,0,0,0-2,2.62h6.66v1.18H11.39a5.81,5.81,0,0,0-.06.86,6,6,0,0,0,.06.86h7v1.18H11.68a5.25,5.25,0,0,0,2,2.63,5.9,5.9,0,0,0,3.36,1A5.5,5.5,0,0,0,21.24,20Z" />
  </symbol>

  <symbol id="CA_INF" viewBox="0 0 88.61 89">
    <title>Caissier·ère</title>
    <defs><style>.cls-1{fill:#fff;}.cls-2{fill:none;}</style></defs>
    <g id="Calque_2" data-name="Calque 2"><g id="Calque_5" data-name="Calque 5">
    <circle class="cls-1" cx="43.71" cy="45.28" r="43.71"/>
    <path d="M43.71,5.67A39.62,39.62,0,1,1,4.1,45.28,39.66,39.66,0,0,1,43.71,5.67m0-4.1A43.72,43.72,0,1,0,87.43,45.28,43.71,43.71,0,0,0,43.71,1.57Z"/><path d="M58,56l3.66,3.61a17,17,0,0,1-6.64,4.59,22.49,22.49,0,0,1-8.66,1.61,23.26,23.26,0,0,1-9.26-1.61,20.25,20.25,0,0,1-7.08-5.47,19.5,19.5,0,0,1-4.12-7.86H19.29V47.77h6c0-1-.13-1.78-.13-2.35a17.09,17.09,0,0,1,.13-2.35h-6V39.76h6.56a19,19,0,0,1,4.2-7.84,19.77,19.77,0,0,1,7.16-5.25,22.57,22.57,0,0,1,9.24-1.88,22.82,22.82,0,0,1,8.68,1.61A17.49,17.49,0,0,1,61.75,31l-3.67,3.64A14.93,14.93,0,0,0,46.72,29.9a15.88,15.88,0,0,0-9.18,2.73,14.31,14.31,0,0,0-5.47,7.16h18.2V43H31.12a16.33,16.33,0,0,0,0,4.7H50.24v3.22H31.91a14.33,14.33,0,0,0,5.46,7.19,16.15,16.15,0,0,0,9.18,2.73A15,15,0,0,0,58,56Z"/><circle cx="14.59" cy="15.91" r="14.34"/><path class="cls-1" d="M13.48,26a1.93,1.93,0,0,1-.76-.79A2.34,2.34,0,0,1,12.44,24V15.27a2.34,2.34,0,0,1,.28-1.16,2,2,0,0,1,.76-.8,2.34,2.34,0,0,1,2.22,0,2,2,0,0,1,.76.8,2.46,2.46,0,0,1,.28,1.16V24a2.46,2.46,0,0,1-.28,1.16,1.93,1.93,0,0,1-.76.79,2.34,2.34,0,0,1-2.22,0Zm0-16.45a2,2,0,0,1-.75-.75,2.12,2.12,0,0,1-.26-1.07,2.11,2.11,0,0,1,.26-1.06,1.93,1.93,0,0,1,.75-.75,2.42,2.42,0,0,1,2.22,0,2,2,0,0,1,.75.75,2.31,2.31,0,0,1,0,2.13,2.07,2.07,0,0,1-.75.75,2.42,2.42,0,0,1-2.22,0Z"/><path class="cls-2" d="M87.88,26.47l-12-12A9.75,9.75,0,0,0,74.4,2.81h0a9.59,9.59,0,0,0-13.57,0,10,10,0,0,0-1.35,1.71A9.63,9.63,0,0,0,72.53,17.9l6.78,6.78L76,28c-2.23,2.24,1.07,5.72,3.39,3.4l3.3-3.31,1.79,1.79.19.16C86.91,31.88,90.05,28.64,87.88,26.47ZM71,13A4.79,4.79,0,0,1,64,6.54c.09-.11.17-.23.27-.34A4.8,4.8,0,0,1,71,13Z"/></g></g>
   </symbol>

  <symbol id="CA_KEY" viewBox="0 0 88.61 89">
    <title>Caissier·ère</title>
    <defs><style>.cls-1{fill:#fff;}</style></defs><g id="Calque_2" data-name="Calque 2">
    <g id="Calque_5" data-name="Calque 5">
    <path class="cls-1" d="M82.7,28.07l-3.3,3.31C77.08,33.7,73.78,30.22,76,28l3.3-3.3L72.53,17.9a9.62,9.62,0,0,1-13-13.38A43.7,43.7,0,1,0,84.68,30l-.19-.16Z"/>
    <path d="M58,56l3.66,3.61a17,17,0,0,1-6.64,4.59,22.49,22.49,0,0,1-8.66,1.61,23.26,23.26,0,0,1-9.26-1.61,20.25,20.25,0,0,1-7.08-5.47,19.5,19.5,0,0,1-4.12-7.86H19.29V47.77h6c0-1-.13-1.78-.13-2.35a17.09,17.09,0,0,1,.13-2.35h-6V39.76h6.56a19,19,0,0,1,4.2-7.84,19.77,19.77,0,0,1,7.16-5.25,22.57,22.57,0,0,1,9.24-1.88,22.82,22.82,0,0,1,8.68,1.61A17.49,17.49,0,0,1,61.75,31l-3.67,3.64A14.93,14.93,0,0,0,46.72,29.9a15.88,15.88,0,0,0-9.18,2.73,14.31,14.31,0,0,0-5.47,7.16h18.2V43H31.12a16.33,16.33,0,0,0,0,4.7H50.24v3.22H31.91a14.29,14.29,0,0,0,5.47,7.19,16.1,16.1,0,0,0,9.18,2.73A15,15,0,0,0,58,56Z"/>
    <path d="M82.54,37.38A39.62,39.62,0,1,1,52.39,6.63a15.69,15.69,0,0,1,1.3-3.9,43.74,43.74,0,1,0,32.89,34A10.74,10.74,0,0,1,82.54,37.38Z"/>
    <path d="M87.88,26.47l-12-12A9.75,9.75,0,0,0,74.4,2.81h0a9.59,9.59,0,0,0-13.57,0,9.43,9.43,0,0,0-1.34,1.71,9.62,9.62,0,0,0,13,13.38l6.78,6.78L76,28c-2.23,2.24,1.07,5.72,3.39,3.4l3.3-3.31,1.79,1.79.19.16C86.91,31.88,90.05,28.64,87.88,26.47ZM71,13A4.79,4.79,0,0,1,64,6.54c.09-.11.17-.23.27-.34A4.8,4.8,0,0,1,71,13Z"/></g></g>
  </symbol>

  <symbol id="CA_KEY_INF" viewBox="0 0 88.61 89">
    <title>Caissier·ère</title>
    <defs><style>.cls-1{fill:#fff;}</style></defs><g id="Calque_2" data-name="Calque 2">
    <g id="Calque_5" data-name="Calque 5">
    <path class="cls-1" d="M82.7,28.07l-3.3,3.31C77.08,33.7,73.78,30.22,76,28l3.3-3.3L72.53,17.9a9.62,9.62,0,0,1-13-13.38A43.7,43.7,0,1,0,84.68,30l-.19-.16Z"/>
    <path d="M58,56l3.66,3.61a17,17,0,0,1-6.64,4.59,22.49,22.49,0,0,1-8.66,1.61,23.26,23.26,0,0,1-9.26-1.61,20.25,20.25,0,0,1-7.08-5.47,19.5,19.5,0,0,1-4.12-7.86H19.29V47.77h6c0-1-.13-1.78-.13-2.35a17.09,17.09,0,0,1,.13-2.35h-6V39.76h6.56a19,19,0,0,1,4.2-7.84,19.77,19.77,0,0,1,7.16-5.25,22.57,22.57,0,0,1,9.24-1.88,22.82,22.82,0,0,1,8.68,1.61A17.49,17.49,0,0,1,61.75,31l-3.67,3.64A14.93,14.93,0,0,0,46.72,29.9a15.88,15.88,0,0,0-9.18,2.73,14.31,14.31,0,0,0-5.47,7.16h18.2V43H31.12a16.33,16.33,0,0,0,0,4.7H50.24v3.22H31.91a14.29,14.29,0,0,0,5.47,7.19,16.1,16.1,0,0,0,9.18,2.73A15,15,0,0,0,58,56Z"/>
    <path d="M82.54,37.38A39.62,39.62,0,1,1,52.39,6.63a15.69,15.69,0,0,1,1.3-3.9,43.74,43.74,0,1,0,32.89,34A10.74,10.74,0,0,1,82.54,37.38Z"/>
    <circle cx="14.59" cy="15.91" r="14.34"/><path class="cls-1" d="M13.48,26a1.93,1.93,0,0,1-.76-.79A2.34,2.34,0,0,1,12.44,24V15.27a2.34,2.34,0,0,1,.28-1.16,2,2,0,0,1,.76-.8,2.34,2.34,0,0,1,2.22,0,2,2,0,0,1,.76.8,2.46,2.46,0,0,1,.28,1.16V24a2.46,2.46,0,0,1-.28,1.16,1.93,1.93,0,0,1-.76.79,2.34,2.34,0,0,1-2.22,0Zm0-16.45a2,2,0,0,1-.75-.75,2.12,2.12,0,0,1-.26-1.07,2.11,2.11,0,0,1,.26-1.06,1.93,1.93,0,0,1,.75-.75,2.42,2.42,0,0,1,2.22,0,2,2,0,0,1,.75.75,2.31,2.31,0,0,1,0,2.13,2.07,2.07,0,0,1-.75.75,2.42,2.42,0,0,1-2.22,0Z"/>
    <path d="M87.88,26.47l-12-12A9.75,9.75,0,0,0,74.4,2.81h0a9.59,9.59,0,0,0-13.57,0,9.43,9.43,0,0,0-1.34,1.71,9.62,9.62,0,0,0,13,13.38l6.78,6.78L76,28c-2.23,2.24,1.07,5.72,3.39,3.4l3.3-3.31,1.79,1.79.19.16C86.91,31.88,90.05,28.64,87.88,26.47ZM71,13A4.79,4.79,0,0,1,64,6.54c.09-.11.17-.23.27-.34A4.8,4.8,0,0,1,71,13Z"/></g></g>
  </symbol>

  <symbol id="CAF" viewBox="0 0 32 32">
    <title>Caissier·ère formateur·ice</title>
    <circle fill="#fff" cx="16" cy="16" r="15.25"/>
    <path d="M16,1.5A14.5,14.5,0,1,1,1.5,16,14.51,14.51,0,0,1,16,1.5M16,0A16,16,0,1,0,32,16,16,16,0,0,0,16,0Z"/>
    <circle cx="26.75" cy="26.8" r="5.25"/>
    <path d="M21.24,20l1.34,1.32A6.23,6.23,0,0,1,20.15,23a8.24,8.24,0,0,1-3.17.59A8.45,8.45,0,0,1,13.59,23,7.42,7.42,0,0,1,11,21a7.12,7.12,0,0,1-1.51-2.88H7.06V17H9.25c0-.36-.05-.65-.05-.86s0-.49.05-.86H7.06V14.07h2.4A7,7,0,0,1,11,11.2a7.19,7.19,0,0,1,2.62-1.92A8.29,8.29,0,0,1,17,8.59a8.38,8.38,0,0,1,3.18.59,6.36,6.36,0,0,1,2.42,1.7l-1.34,1.33a5.48,5.48,0,0,0-4.16-1.75,5.83,5.83,0,0,0-3.36,1,5.23,5.23,0,0,0-2,2.62h6.66v1.18H11.39a5.81,5.81,0,0,0-.06.86,6,6,0,0,0,.06.86h7v1.18H11.68a5.25,5.25,0,0,0,2,2.63,5.9,5.9,0,0,0,3.36,1A5.5,5.5,0,0,0,21.24,20Z"/>
  </symbol>

  <symbol id="CAF_KEY" viewBox="0 0 88.61 89">
    <title>Caissier·ère formateur·ice</title>
    <defs><style>.cls-1{fill:#fff;}</style></defs>
    <g id="Calque_2" data-name="Calque 2">
    <g id="Calque_5" data-name="Calque 5">
    <path class="cls-1" d="M82.7,28.07l-3.3,3.31C77.08,33.7,73.78,30.22,76,28l3.3-3.3L72.53,17.9a9.62,9.62,0,0,1-13-13.38A43.7,43.7,0,1,0,84.68,30l-.19-.16Z"/>
    <path d="M58,56l3.66,3.61a17,17,0,0,1-6.64,4.59,22.49,22.49,0,0,1-8.66,1.61,23.26,23.26,0,0,1-9.26-1.61,20.25,20.25,0,0,1-7.08-5.47,19.5,19.5,0,0,1-4.12-7.86H19.29V47.77h6c0-1-.13-1.78-.13-2.35a17.09,17.09,0,0,1,.13-2.35h-6V39.76h6.56a19,19,0,0,1,4.2-7.84,19.77,19.77,0,0,1,7.16-5.25,22.57,22.57,0,0,1,9.24-1.88,22.82,22.82,0,0,1,8.68,1.61A17.49,17.49,0,0,1,61.75,31l-3.67,3.64A14.93,14.93,0,0,0,46.72,29.9a15.88,15.88,0,0,0-9.18,2.73,14.31,14.31,0,0,0-5.47,7.16h18.2V43H31.12a16.33,16.33,0,0,0,0,4.7H50.24v3.22H31.91a14.29,14.29,0,0,0,5.47,7.19,16.1,16.1,0,0,0,9.18,2.73A15,15,0,0,0,58,56Z"/>
    <path d="M82.54,37.38A39.62,39.62,0,1,1,52.39,6.63a15.69,15.69,0,0,1,1.3-3.9,43.74,43.74,0,1,0,32.89,34A10.74,10.74,0,0,1,82.54,37.38Z"/><circle cx="73.33" cy="74.65" r="14.34"/>
    <path d="M87.88,26.47l-12-12A9.75,9.75,0,0,0,74.4,2.81h0a9.59,9.59,0,0,0-13.57,0,9.43,9.43,0,0,0-1.34,1.71,9.62,9.62,0,0,0,13,13.38l6.78,6.78L76,28c-2.23,2.24,1.07,5.72,3.39,3.4l3.3-3.31,1.79,1.79.19.16C86.91,31.88,90.05,28.64,87.88,26.47ZM71,13A4.79,4.79,0,0,1,64,6.54c.09-.11.17-.23.27-.34A4.8,4.8,0,0,1,71,13Z"/></g></g>
  </symbol>

  <symbol id="CAF_KEY_INF" viewBox="0 0 88.61 89">
    <title>Caissier·ère formateur·ice</title>
    <defs><style>.cls-1{fill:#fff;}</style></defs><g id="Calque_2" data-name="Calque 2">
    <g id="Calque_5" data-name="Calque 5">
    <path class="cls-1" d="M82.7,28.07l-3.3,3.31C77.08,33.7,73.78,30.22,76,28l3.3-3.3L72.53,17.9a9.62,9.62,0,0,1-13-13.38A43.7,43.7,0,1,0,84.68,30l-.19-.16Z"/>
    <path d="M58,56l3.66,3.61a17,17,0,0,1-6.64,4.59,22.49,22.49,0,0,1-8.66,1.61,23.26,23.26,0,0,1-9.26-1.61,20.25,20.25,0,0,1-7.08-5.47,19.5,19.5,0,0,1-4.12-7.86H19.29V47.77h6c0-1-.13-1.78-.13-2.35a17.09,17.09,0,0,1,.13-2.35h-6V39.76h6.56a19,19,0,0,1,4.2-7.84,19.77,19.77,0,0,1,7.16-5.25,22.57,22.57,0,0,1,9.24-1.88,22.82,22.82,0,0,1,8.68,1.61A17.49,17.49,0,0,1,61.75,31l-3.67,3.64A14.93,14.93,0,0,0,46.72,29.9a15.88,15.88,0,0,0-9.18,2.73,14.31,14.31,0,0,0-5.47,7.16h18.2V43H31.12a16.33,16.33,0,0,0,0,4.7H50.24v3.22H31.91a14.29,14.29,0,0,0,5.47,7.19,16.1,16.1,0,0,0,9.18,2.73A15,15,0,0,0,58,56Z"/>
    <path d="M82.54,37.38A39.62,39.62,0,1,1,52.39,6.63a15.69,15.69,0,0,1,1.3-3.9,43.74,43.74,0,1,0,32.89,34A10.74,10.74,0,0,1,82.54,37.38Z"/>
    <circle cx="73.33" cy="74.65" r="14.34"/><circle cx="14.59" cy="15.91" r="14.34"/>
    <path class="cls-1" d="M13.48,26a1.93,1.93,0,0,1-.76-.79A2.34,2.34,0,0,1,12.44,24V15.27a2.34,2.34,0,0,1,.28-1.16,2,2,0,0,1,.76-.8,2.34,2.34,0,0,1,2.22,0,2,2,0,0,1,.76.8,2.46,2.46,0,0,1,.28,1.16V24a2.46,2.46,0,0,1-.28,1.16,1.93,1.93,0,0,1-.76.79,2.34,2.34,0,0,1-2.22,0Zm0-16.45a2,2,0,0,1-.75-.75,2.12,2.12,0,0,1-.26-1.07,2.11,2.11,0,0,1,.26-1.06,1.93,1.93,0,0,1,.75-.75,2.42,2.42,0,0,1,2.22,0,2,2,0,0,1,.75.75,2.31,2.31,0,0,1,0,2.13,2.07,2.07,0,0,1-.75.75,2.42,2.42,0,0,1-2.22,0Z"/>
    <path d="M87.88,26.47l-12-12A9.75,9.75,0,0,0,74.4,2.81h0a9.59,9.59,0,0,0-13.57,0,9.43,9.43,0,0,0-1.34,1.71,9.62,9.62,0,0,0,13,13.38l6.78,6.78L76,28c-2.23,2.24,1.07,5.72,3.39,3.4l3.3-3.31,1.79,1.79.19.16C86.91,31.88,90.05,28.64,87.88,26.47ZM71,13A4.79,4.79,0,0,1,64,6.54c.09-.11.17-.23.27-.34A4.8,4.8,0,0,1,71,13Z"/></g></g>
  </symbol>

  <symbol id="CH" viewBox="0 0 32 32">
    <title>Chouettos</title>
    <circle fill="#fff" cx="16" cy="16" r="15.25"/>
    <path d="M16,1.5A14.5,14.5,0,1,1,1.5,16,14.51,14.51,0,0,1,16,1.5M16,0A16,16,0,1,0,32,16,16,16,0,0,0,16,0Z"/>
    <path d="M30.13,10.49a7.25,7.25,0,0,0-8.68-3.38c-2.92,1-4.46,3.27-5.4,6.33a10.47,10.47,0,0,0-1.37-3.14C11.17,5,4.65,6.05,2.32,10L.21,13.4c2-7,6.59-11.53,13.16-13.18,7.3-.22,15.9,3.62,18.4,13.05Zm-14.07.37a8.8,8.8,0,0,1,3.37-4.73,7.83,7.83,0,0,1,7.78-.46C20.94-.9,10.41-1.09,4.79,5.8,9.55,2.81,14.55,6.62,16.06,10.86Z"/>
    <path d="M21.07,15.59a2.76,2.76,0,0,1,3-2.83,2.88,2.88,0,1,1-.1,5.76A2.75,2.75,0,0,1,21.07,15.59Zm4.05.06C25,15,24.7,14.51,24,14.51a1.05,1.05,0,0,0-1.17,1.11,1,1,0,0,0,1.14,1.15C24.66,16.79,25,16.36,25.12,15.65Z"/>
    <path d="M8.67,12.76a2.88,2.88,0,1,1,0,5.76,2.88,2.88,0,1,1,0-5.76Zm1.18,2.89a1.07,1.07,0,0,0-1.14-1.14,1.05,1.05,0,0,0-1.15,1.13A1.06,1.06,0,0,0,8.7,16.78,1.07,1.07,0,0,0,9.85,15.65Z"/>
    <path d="M16.07,21.41a3.86,3.86,0,0,1-1.22-2.08,1.33,1.33,0,0,1,1.23-1.25c.56,0,1.32.62,1.22,1.27A3.68,3.68,0,0,1,16.07,21.41Z"/>
  </symbol>

  <symbol id="CH_INF" viewBox="0 0 88.61 89">
    <title>Chouettos</title>
    <defs><style>.cls-1{fill:#fff;}.cls-2{fill:none;}</style></defs><g id="Calque_2" data-name="Calque 2"><g id="Calque_5" data-name="Calque 5"><circle class="cls-1" cx="43.71" cy="45.28" r="43.71"/><path d="M86.76,37.71l.07.12c0-.14-.09-.27-.12-.41a47.91,47.91,0,1,0,.05.29Zm-43.05-32a39.44,39.44,0,0,1,25.94,9.71,21.36,21.36,0,0,0-16.54,2.94A24.08,24.08,0,0,0,43.9,31.24C40.29,21.1,29.38,11.86,18,15.19A39.43,39.43,0,0,1,43.71,5.67Zm0,79.23A39.59,39.59,0,0,1,9.94,24.61c8-7,22-7.21,30.19,5.1a28.69,28.69,0,0,1,3.75,8.58C46.45,29.93,50.65,23.73,58.63,21a19.79,19.79,0,0,1,18.61,3.22A39.58,39.58,0,0,1,43.71,84.9Z"/><path d="M57.57,44.16a7.53,7.53,0,0,1,7.31-7.75,8.55,8.55,0,0,1,.88,0,7.87,7.87,0,0,1-.27,15.74,7.51,7.51,0,0,1-7.93-7.07A5.9,5.9,0,0,1,57.57,44.16Zm11.06.17c-.33-1.78-1.15-3.12-3.06-3.12a2.87,2.87,0,0,0-3.18,2.52,3,3,0,0,0,0,.52,2.75,2.75,0,0,0,3.12,3.14C67.37,47.44,68.3,46.27,68.63,44.33Z"/><path d="M23.69,36.43a7.87,7.87,0,1,1-7.87,7.87A7.88,7.88,0,0,1,23.69,36.43Zm3.22,7.9a2.93,2.93,0,0,0-2.72-3.12H23.8a2.9,2.9,0,0,0-3.15,3.09,2.91,2.91,0,0,0,2.66,3.12h.46a2.94,2.94,0,0,0,3.14-2.7A2.54,2.54,0,0,0,26.91,44.33Z"/><path d="M43.9,60.07a10.65,10.65,0,0,1-3.33-5.69A3.63,3.63,0,0,1,43.93,51c1.53,0,3.61,1.69,3.34,3.47A10.06,10.06,0,0,1,43.9,60.07Z"/><circle cx="14.59" cy="15.91" r="14.34"/><path class="cls-2" d="M87.88,26.47l-12-12A9.75,9.75,0,0,0,74.4,2.81h0a9.59,9.59,0,0,0-13.57,0,10,10,0,0,0-1.35,1.71A9.63,9.63,0,0,0,72.53,17.9l6.78,6.78L76,28c-2.23,2.24,1.07,5.72,3.39,3.4l3.3-3.31,1.79,1.79.19.16C86.91,31.88,90.05,28.64,87.88,26.47ZM71,13A4.79,4.79,0,0,1,64,6.54c.09-.11.17-.23.27-.34A4.8,4.8,0,0,1,71,13Z"/><path class="cls-1" d="M13.48,26a1.93,1.93,0,0,1-.76-.79A2.34,2.34,0,0,1,12.44,24V15.27a2.34,2.34,0,0,1,.28-1.16,2,2,0,0,1,.76-.8,2.34,2.34,0,0,1,2.22,0,2,2,0,0,1,.76.8,2.46,2.46,0,0,1,.28,1.16V24a2.46,2.46,0,0,1-.28,1.16,1.93,1.93,0,0,1-.76.79,2.34,2.34,0,0,1-2.22,0Zm0-16.45a2,2,0,0,1-.75-.75,2.12,2.12,0,0,1-.26-1.07,2.11,2.11,0,0,1,.26-1.06,1.93,1.93,0,0,1,.75-.75,2.42,2.42,0,0,1,2.22,0,2,2,0,0,1,.75.75,2.31,2.31,0,0,1,0,2.13,2.07,2.07,0,0,1-.75.75,2.42,2.42,0,0,1-2.22,0Z"/></g></g>
  </symbol>

  <symbol id="CH_KEY" viewBox="0 0 88.61 89">
    <title>Chouettos</title>
    <defs><style>.cls-1{fill:#fff;}</style></defs><g id="Calque_2" data-name="Calque 2"><g id="Calque_5" data-name="Calque 5"><path class="cls-1" d="M82.7,28.07l-3.3,3.31C77.08,33.7,73.78,30.22,76,28l3.3-3.3L72.53,17.9a9.62,9.62,0,0,1-13-13.38A43.7,43.7,0,1,0,84.68,30l-.19-.16Z"/>
    <path d="M57.57,44.16a7.53,7.53,0,0,1,7.31-7.75,8.55,8.55,0,0,1,.88,0,7.87,7.87,0,0,1-.27,15.74,7.51,7.51,0,0,1-7.93-7.07A5.9,5.9,0,0,1,57.57,44.16Zm11.06.17c-.33-1.78-1.15-3.12-3.06-3.12a2.87,2.87,0,0,0-3.18,2.52,3,3,0,0,0,0,.52,2.75,2.75,0,0,0,3.12,3.14C67.37,47.44,68.3,46.27,68.63,44.33Z"/>
    <path d="M23.69,36.43a7.87,7.87,0,1,1-7.87,7.87A7.88,7.88,0,0,1,23.69,36.43Zm3.22,7.9a2.93,2.93,0,0,0-2.72-3.12H23.8a2.9,2.9,0,0,0-3.15,3.09,2.91,2.91,0,0,0,2.66,3.12h.46a2.94,2.94,0,0,0,3.14-2.7A2.54,2.54,0,0,0,26.91,44.33Z"/>
    <path d="M43.91,60.07a10.61,10.61,0,0,1-3.34-5.69A3.63,3.63,0,0,1,43.93,51c1.53,0,3.61,1.69,3.34,3.47A10.1,10.1,0,0,1,43.91,60.07Z"/>
    <path d="M86.77,37.77l0,.06-.06-.21c0-.3-.1-.6-.16-.89l-.09,0,0-.06-.28.1,0,0a10.74,10.74,0,0,1-3.68.54A39.62,39.62,0,1,1,10,24.56c8-6.93,22-7.13,30.15,5.15a28.67,28.67,0,0,1,3.74,8.58c2.47-8,6.47-14.08,13.88-17a15.66,15.66,0,0,1-3.31-3.81c-.45.25-.9.51-1.34.8a24.06,24.06,0,0,0-9.2,12.92C40.27,21.11,29.37,11.88,18,15.19A39.45,39.45,0,0,1,43.71,5.67a40,40,0,0,1,8.68,1,15.69,15.69,0,0,1,1.3-3.9A43.68,43.68,0,0,0,.6,38.11l0,.07,0,0a43.71,43.71,0,1,0,86.84,7.12A44.25,44.25,0,0,0,86.77,37.77Z"/>
    <path d="M87.88,26.47l-12-12A9.75,9.75,0,0,0,74.4,2.81h0a9.59,9.59,0,0,0-13.57,0,9.43,9.43,0,0,0-1.34,1.71,9.62,9.62,0,0,0,13,13.38l6.78,6.78L76,28c-2.23,2.24,1.07,5.72,3.39,3.4l3.3-3.31,1.79,1.79.19.16C86.91,31.88,90.05,28.64,87.88,26.47ZM71,13A4.79,4.79,0,0,1,64,6.54c.09-.11.17-.23.27-.34A4.8,4.8,0,0,1,71,13Z"/></g></g>
</symbol>

 <symbol id="CH_KEY_INF" viewBox="0 0 88.61 89">
    <title>Chouettos</title>
    <defs><style>.cls-1{fill:#fff;}</style>
    </defs><g id="Calque_2" data-name="Calque 2"><g id="Calque_5" data-name="Calque 5">
    <path class="cls-1" d="M82.7,28.07l-3.3,3.31C77.08,33.7,73.78,30.22,76,28l3.3-3.3L72.53,17.9a9.62,9.62,0,0,1-13-13.38A43.7,43.7,0,1,0,84.68,30l-.19-.16Z"/>
    <path d="M57.57,44.16a7.53,7.53,0,0,1,7.31-7.75,8.55,8.55,0,0,1,.88,0,7.87,7.87,0,0,1-.27,15.74,7.51,7.51,0,0,1-7.93-7.07A5.9,5.9,0,0,1,57.57,44.16Zm11.06.17c-.33-1.78-1.15-3.12-3.06-3.12a2.87,2.87,0,0,0-3.18,2.52,3,3,0,0,0,0,.52,2.75,2.75,0,0,0,3.12,3.14C67.37,47.44,68.3,46.27,68.63,44.33Z"/>
    <path d="M23.69,36.43a7.87,7.87,0,1,1-7.87,7.87A7.88,7.88,0,0,1,23.69,36.43Zm3.22,7.9a2.93,2.93,0,0,0-2.72-3.12H23.8a2.9,2.9,0,0,0-3.15,3.09,2.91,2.91,0,0,0,2.66,3.12h.46a2.94,2.94,0,0,0,3.14-2.7A2.54,2.54,0,0,0,26.91,44.33Z"/>
    <path d="M43.91,60.07a10.61,10.61,0,0,1-3.34-5.69A3.63,3.63,0,0,1,43.93,51c1.53,0,3.61,1.69,3.34,3.47A10.1,10.1,0,0,1,43.91,60.07Z"/>
    <path d="M86.77,37.77l0,.06-.06-.21c0-.3-.1-.6-.16-.89l-.09,0,0-.06-.28.1,0,0a10.74,10.74,0,0,1-3.68.54A39.62,39.62,0,1,1,10,24.56c8-6.93,22-7.13,30.15,5.15a28.67,28.67,0,0,1,3.74,8.58c2.47-8,6.47-14.08,13.88-17a15.66,15.66,0,0,1-3.31-3.81c-.45.25-.9.51-1.34.8a24.06,24.06,0,0,0-9.2,12.92C40.27,21.11,29.37,11.88,18,15.19A39.45,39.45,0,0,1,43.71,5.67a40,40,0,0,1,8.68,1,15.69,15.69,0,0,1,1.3-3.9A43.68,43.68,0,0,0,.6,38.11l0,.07,0,0a43.71,43.71,0,1,0,86.84,7.12A44.25,44.25,0,0,0,86.77,37.77Z"/>
    <circle cx="14.59" cy="15.91" r="14.34"/>
    <path d="M87.88,26.47l-12-12A9.75,9.75,0,0,0,74.4,2.81h0a9.59,9.59,0,0,0-13.57,0,9.43,9.43,0,0,0-1.34,1.71,9.62,9.62,0,0,0,13,13.38l6.78,6.78L76,28c-2.23,2.24,1.07,5.72,3.39,3.4l3.3-3.31,1.79,1.79.19.16C86.91,31.88,90.05,28.64,87.88,26.47ZM71,13A4.79,4.79,0,0,1,64,6.54c.09-.11.17-.23.27-.34A4.8,4.8,0,0,1,71,13Z"/>
    <path class="cls-1" d="M13.48,26a1.93,1.93,0,0,1-.76-.79A2.34,2.34,0,0,1,12.44,24V15.27a2.34,2.34,0,0,1,.28-1.16,2,2,0,0,1,.76-.8,2.34,2.34,0,0,1,2.22,0,2,2,0,0,1,.76.8,2.46,2.46,0,0,1,.28,1.16V24a2.46,2.46,0,0,1-.28,1.16,1.93,1.93,0,0,1-.76.79,2.34,2.34,0,0,1-2.22,0Zm0-16.45a2,2,0,0,1-.75-.75,2.12,2.12,0,0,1-.26-1.07,2.11,2.11,0,0,1,.26-1.06,1.93,1.93,0,0,1,.75-.75,2.42,2.42,0,0,1,2.22,0,2,2,0,0,1,.75.75,2.31,2.31,0,0,1,0,2.13,2.07,2.07,0,0,1-.75.75,2.42,2.42,0,0,1-2.22,0Z"/></g></g>
  </symbol>

  <symbol id="GH" viewBox="0 0 32 32">
    <title>GH</title>
    <circle fill="#fff" cx="16" cy="16" r="15.25"/>
    <path d="M16,1.5A14.5,14.5,0,1,1,1.5,16,14.51,14.51,0,0,1,16,1.5M16,0A16,16,0,1,0,32,16,16,16,0,0,0,16,0Z"/>
    <path d="M12.94,15h1.73v3.92a5.63,5.63,0,0,1-1.77.93,7,7,0,0,1-2.08.32,5.65,5.65,0,0,1-2.71-.65,4.87,4.87,0,0,1-1.9-1.81,5.24,5.24,0,0,1,0-5.2,4.87,4.87,0,0,1,1.9-1.81A5.8,5.8,0,0,1,10.85,10a6,6,0,0,1,2.25.41,4.47,4.47,0,0,1,1.7,1.19l-1.15,1.13a3.72,3.72,0,0,0-2.72-1.13A3.86,3.86,0,0,0,9.08,12a3.21,3.21,0,0,0-1.26,1.22,3.5,3.5,0,0,0-.46,1.8,3.39,3.39,0,0,0,.46,1.77,3.26,3.26,0,0,0,1.26,1.24,3.72,3.72,0,0,0,1.84.45,3.91,3.91,0,0,0,2-.51Z"/>
    <path d="M25.82,10.14V20H24V15.76H18.9V20H17.07V10.14H18.9V14.2H24V10.14Z"/>
    <rect x="11.03" y="14.95" width="3.65" height="1.31"/>
  </symbol>

   <symbol id="GH_KEY" viewBox="0 0 88.61 89">
    <title>GH</title>
    <defs><style>.cls-1{fill:#fff;}</style></defs>
    <g id="Calque_2" data-name="Calque 2"><g id="Calque_5" data-name="Calque 5">
    <path class="cls-1" d="M82.7,28.07l-3.3,3.31C77.08,33.7,73.78,30.22,76,28l3.3-3.3L72.53,17.9A9.63,9.63,0,0,1,59.48,4.52,43.69,43.69,0,1,0,84.68,30l-.19-.16Z"/>
    <path d="M82.54,37.38A39.62,39.62,0,1,1,52.39,6.63a15.69,15.69,0,0,1,1.3-3.9,43.74,43.74,0,1,0,32.89,34A10.74,10.74,0,0,1,82.54,37.38Z"/>
    <path d="M87.88,26.47l-12-12A9.75,9.75,0,0,0,74.4,2.81h0a9.59,9.59,0,0,0-13.57,0,10,10,0,0,0-1.35,1.71A9.63,9.63,0,0,0,72.53,17.9l6.78,6.78L76,28c-2.23,2.24,1.07,5.72,3.39,3.4l3.3-3.31,1.79,1.79.19.16C86.91,31.88,90.05,28.64,87.88,26.47ZM71,13A4.79,4.79,0,0,1,64,6.54c.09-.11.17-.23.27-.34A4.8,4.8,0,0,1,71,13Z"/>
    <path d="M25.71,35.86a10.53,10.53,0,0,1,5.05-1.1,10.2,10.2,0,0,1,7.44,3.09l3.14-3.09a12.32,12.32,0,0,0-4.65-3.25,16.53,16.53,0,0,0-6.14-1.12,15.91,15.91,0,0,0-7.49,1.91,13.35,13.35,0,0,0-5.19,5,14.3,14.3,0,0,0,0,14.21,13.26,13.26,0,0,0,5.19,4.94,15.52,15.52,0,0,0,7.4,1.78,19.26,19.26,0,0,0,5.69-.88A14.83,14.83,0,0,0,41,54.76V47.49h0V43.92H31v3.57h5.19l0,4.68a10.75,10.75,0,0,1-5.46,1.39,10.13,10.13,0,0,1-5-1.23,8.83,8.83,0,0,1-3.44-3.39A9.21,9.21,0,0,1,21,44.11a9.53,9.53,0,0,1,1.26-4.92A8.74,8.74,0,0,1,25.71,35.86Z"/>
    <polygon points="66.47 30.77 66.47 41.87 52.54 41.87 52.54 30.77 47.54 30.77 47.54 57.71 52.54 57.71 52.54 46.13 66.47 46.13 66.47 57.71 71.44 57.71 71.44 30.77 66.47 30.77"/></g></g>
   </symbol>

  <symbol id="GH_INF" viewBox="0 0 88.61 89">
    <title>GH</title>
    <defs><style>.cls-1{fill:#fff;}.cls-2{fill:none;}</style>
    </defs><g id="Calque_2" data-name="Calque 2"><g id="Calque_5" data-name="Calque 5">
    <circle class="cls-1" cx="43.71" cy="45.28" r="43.71"/>
    <path d="M43.71,5.67A39.62,39.62,0,1,1,4.1,45.28,39.66,39.66,0,0,1,43.71,5.67m0-4.1A43.72,43.72,0,1,0,87.43,45.28,43.71,43.71,0,0,0,43.71,1.57Z"/>
    <circle cx="14.59" cy="15.91" r="14.34"/>
    <path class="cls-1" d="M13.48,26a1.93,1.93,0,0,1-.76-.79A2.34,2.34,0,0,1,12.44,24V15.27a2.34,2.34,0,0,1,.28-1.16,2,2,0,0,1,.76-.8,2.34,2.34,0,0,1,2.22,0,2,2,0,0,1,.76.8,2.46,2.46,0,0,1,.28,1.16V24a2.46,2.46,0,0,1-.28,1.16,1.93,1.93,0,0,1-.76.79,2.34,2.34,0,0,1-2.22,0Zm0-16.45a2,2,0,0,1-.75-.75,2.12,2.12,0,0,1-.26-1.07,2.11,2.11,0,0,1,.26-1.06,1.93,1.93,0,0,1,.75-.75,2.42,2.42,0,0,1,2.22,0,2,2,0,0,1,.75.75,2.31,2.31,0,0,1,0,2.13,2.07,2.07,0,0,1-.75.75,2.42,2.42,0,0,1-2.22,0Z"/>
    <path class="cls-2" d="M87.88,26.47l-12-12A9.75,9.75,0,0,0,74.4,2.81h0a9.59,9.59,0,0,0-13.57,0,10,10,0,0,0-1.35,1.71A9.63,9.63,0,0,0,72.53,17.9l6.78,6.78L76,28c-2.23,2.24,1.07,5.72,3.39,3.4l3.3-3.31,1.79,1.79.19.16C86.91,31.88,90.05,28.64,87.88,26.47ZM71,13A4.79,4.79,0,0,1,64,6.54c.09-.11.17-.23.27-.34A4.8,4.8,0,0,1,71,13Z"/>
    <path d="M25.71,35.86a10.53,10.53,0,0,1,5.05-1.1,10.2,10.2,0,0,1,7.44,3.09l3.14-3.09a12.32,12.32,0,0,0-4.65-3.25,16.53,16.53,0,0,0-6.14-1.12,15.91,15.91,0,0,0-7.49,1.91,13.35,13.35,0,0,0-5.19,5,14.3,14.3,0,0,0,0,14.21,13.26,13.26,0,0,0,5.19,4.94,15.52,15.52,0,0,0,7.4,1.78,19.26,19.26,0,0,0,5.69-.88A14.83,14.83,0,0,0,41,54.76V47.49h0V43.92H31v3.57h5.19l0,4.68a10.75,10.75,0,0,1-5.46,1.39,10.13,10.13,0,0,1-5-1.23,8.83,8.83,0,0,1-3.44-3.39A9.21,9.21,0,0,1,21,44.11a9.53,9.53,0,0,1,1.26-4.92A8.74,8.74,0,0,1,25.71,35.86Z"/>
    <polygon points="66.47 30.77 66.47 41.87 52.54 41.87 52.54 30.77 47.54 30.77 47.54 57.71 52.54 57.71 52.54 46.13 66.47 46.13 66.47 57.71 71.44 57.71 71.44 30.77 66.47 30.77"/></g></g>
</symbol>

<symbol id="GH_KEY_INF" viewBox="0 0 88.61 89">
<title>GH</title>
  <defs><style>.cls-1{fill:#fff;}.cls-2{fill:none;}</style></defs>
  <g id="Calque_2" data-name="Calque 2"><g id="Calque_5" data-name="Calque 5">
  <circle class="cls-1" cx="43.71" cy="45.28" r="43.71"/>
  <path d="M43.71,5.67A39.62,39.62,0,1,1,4.1,45.28,39.66,39.66,0,0,1,43.71,5.67m0-4.1A43.72,43.72,0,1,0,87.43,45.28,43.71,43.71,0,0,0,43.71,1.57Z"/><circle cx="14.59" cy="15.91" r="14.34"/>
  <path class="cls-1" d="M13.48,26a1.93,1.93,0,0,1-.76-.79A2.34,2.34,0,0,1,12.44,24V15.27a2.34,2.34,0,0,1,.28-1.16,2,2,0,0,1,.76-.8,2.34,2.34,0,0,1,2.22,0,2,2,0,0,1,.76.8,2.46,2.46,0,0,1,.28,1.16V24a2.46,2.46,0,0,1-.28,1.16,1.93,1.93,0,0,1-.76.79,2.34,2.34,0,0,1-2.22,0Zm0-16.45a2,2,0,0,1-.75-.75,2.12,2.12,0,0,1-.26-1.07,2.11,2.11,0,0,1,.26-1.06,1.93,1.93,0,0,1,.75-.75,2.42,2.42,0,0,1,2.22,0,2,2,0,0,1,.75.75,2.31,2.31,0,0,1,0,2.13,2.07,2.07,0,0,1-.75.75,2.42,2.42,0,0,1-2.22,0Z"/>
  <path class="cls-2" d="M87.88,26.47l-12-12A9.75,9.75,0,0,0,74.4,2.81h0a9.59,9.59,0,0,0-13.57,0,10,10,0,0,0-1.35,1.71A9.63,9.63,0,0,0,72.53,17.9l6.78,6.78L76,28c-2.23,2.24,1.07,5.72,3.39,3.4l3.3-3.31,1.79,1.79.19.16C86.91,31.88,90.05,28.64,87.88,26.47ZM71,13A4.79,4.79,0,0,1,64,6.54c.09-.11.17-.23.27-.34A4.8,4.8,0,0,1,71,13Z"/>
  <path d="M25.71,35.86a10.53,10.53,0,0,1,5.05-1.1,10.2,10.2,0,0,1,7.44,3.09l3.14-3.09a12.32,12.32,0,0,0-4.65-3.25,16.53,16.53,0,0,0-6.14-1.12,15.91,15.91,0,0,0-7.49,1.91,13.35,13.35,0,0,0-5.19,5,14.3,14.3,0,0,0,0,14.21,13.26,13.26,0,0,0,5.19,4.94,15.52,15.52,0,0,0,7.4,1.78,19.26,19.26,0,0,0,5.69-.88A14.83,14.83,0,0,0,41,54.76V47.49h0V43.92H31v3.57h5.19l0,4.68a10.75,10.75,0,0,1-5.46,1.39,10.13,10.13,0,0,1-5-1.23,8.83,8.83,0,0,1-3.44-3.39A9.21,9.21,0,0,1,21,44.11a9.53,9.53,0,0,1,1.26-4.92A8.74,8.74,0,0,1,25.71,35.86Z"/>
  <polygon points="66.47 30.77 66.47 41.87 52.54 41.87 52.54 30.77 47.54 30.77 47.54 57.71 52.54 57.71 52.54 46.13 66.47 46.13 66.47 57.71 71.44 57.71 71.44 30.77 66.47 30.77"/></g></g>
</symbol>

  <symbol id="GHF" viewBox="0 0 32 32">
    <title>GH formateur·ice</title>
    <circle fill="#fff" cx="16" cy="16" r="15.25"/>
    <path d="M16,1.5A14.5,14.5,0,1,1,1.5,16,14.51,14.51,0,0,1,16,1.5M16,0A16,16,0,1,0,32,16,16,16,0,0,0,16,0Z"/>
    <path d="M12.94,15h1.73v3.92a5.52,5.52,0,0,1-1.77.93,7,7,0,0,1-2.08.32,5.65,5.65,0,0,1-2.71-.65,4.87,4.87,0,0,1-1.9-1.81,5.24,5.24,0,0,1,0-5.2,4.87,4.87,0,0,1,1.9-1.81A5.8,5.8,0,0,1,10.85,10a6,6,0,0,1,2.25.41,4.47,4.47,0,0,1,1.7,1.19l-1.15,1.13a3.72,3.72,0,0,0-2.72-1.13A3.86,3.86,0,0,0,9.08,12a3.21,3.21,0,0,0-1.26,1.22,3.5,3.5,0,0,0-.46,1.8,3.39,3.39,0,0,0,.46,1.77,3.26,3.26,0,0,0,1.26,1.24,3.72,3.72,0,0,0,1.84.45,3.91,3.91,0,0,0,2-.51Z"/>
    <path d="M25.82,10.14V20H24V15.76H18.9V20H17.07V10.14H18.9V14.2H24V10.14Z"/>
    <circle cx="26.75" cy="26.75" r="5.25"/>
    <rect x="11.03" y="14.95" width="3.65" height="1.31"/>
  </symbol>

  <symbol id="GHF_KEY" viewBox="0 0 88.61 89">
    <title>GH formateur·ice</title>
    <defs><style>.cls-1{fill:#fff;}</style></defs><g id="Calque_2" data-name="Calque 2"><g id="Calque_5" data-name="Calque 5">
    <path class="cls-1" d="M82.7,28.07l-3.3,3.31C77.08,33.7,73.78,30.22,76,28l3.3-3.3L72.53,17.9A9.63,9.63,0,0,1,59.48,4.52,43.69,43.69,0,1,0,84.68,30l-.19-.16Z"/>
    <path d="M82.54,37.38A39.62,39.62,0,1,1,52.39,6.63a15.69,15.69,0,0,1,1.3-3.9,43.74,43.74,0,1,0,32.89,34A10.74,10.74,0,0,1,82.54,37.38Z"/>
    <circle cx="73.33" cy="74.65" r="14.34"/><path d="M87.88,26.47l-12-12A9.75,9.75,0,0,0,74.4,2.81h0a9.59,9.59,0,0,0-13.57,0,10,10,0,0,0-1.35,1.71A9.63,9.63,0,0,0,72.53,17.9l6.78,6.78L76,28c-2.23,2.24,1.07,5.72,3.39,3.4l3.3-3.31,1.79,1.79.19.16C86.91,31.88,90.05,28.64,87.88,26.47ZM71,13A4.79,4.79,0,0,1,64,6.54c.09-.11.17-.23.27-.34A4.8,4.8,0,0,1,71,13Z"/>
    <path d="M25.71,35.86a10.53,10.53,0,0,1,5.05-1.1,10.2,10.2,0,0,1,7.44,3.09l3.14-3.09a12.32,12.32,0,0,0-4.65-3.25,16.53,16.53,0,0,0-6.14-1.12,15.91,15.91,0,0,0-7.49,1.91,13.35,13.35,0,0,0-5.19,5,14.3,14.3,0,0,0,0,14.21,13.26,13.26,0,0,0,5.19,4.94,15.52,15.52,0,0,0,7.4,1.78,19.26,19.26,0,0,0,5.69-.88A14.83,14.83,0,0,0,41,54.76V47.49h0V43.92H31v3.57h5.19l0,4.68a10.75,10.75,0,0,1-5.46,1.39,10.13,10.13,0,0,1-5-1.23,8.83,8.83,0,0,1-3.44-3.39A9.21,9.21,0,0,1,21,44.11a9.53,9.53,0,0,1,1.26-4.92A8.74,8.74,0,0,1,25.71,35.86Z"/>
    <polygon points="66.47 30.77 66.47 41.87 52.54 41.87 52.54 30.77 47.54 30.77 47.54 57.71 52.54 57.71 52.54 46.13 66.47 46.13 66.47 57.71 71.44 57.71 71.44 30.77 66.47 30.77"/></g></g>
  </symbol>

    <symbol id="GHF_KEY_INFO" viewBox="0 0 88.61 89">
    <title>GH formateur·ice</title>
    <defs><style>.cls-1{fill:#fff;}</style></defs><g id="Calque_2" data-name="Calque 2"><g id="Calque_5" data-name="Calque 5"><path class="cls-1" d="M82.7,28.07l-3.3,3.31C77.08,33.7,73.78,30.22,76,28l3.3-3.3L72.53,17.9A9.63,9.63,0,0,1,59.48,4.52,43.69,43.69,0,1,0,84.68,30l-.19-.16Z"/><path d="M82.54,37.38A39.62,39.62,0,1,1,52.39,6.63a15.69,15.69,0,0,1,1.3-3.9,43.74,43.74,0,1,0,32.89,34A10.74,10.74,0,0,1,82.54,37.38Z"/><circle cx="14.59" cy="15.91" r="14.34"/><path class="cls-1" d="M13.48,26a1.93,1.93,0,0,1-.76-.79A2.34,2.34,0,0,1,12.44,24V15.27a2.34,2.34,0,0,1,.28-1.16,2,2,0,0,1,.76-.8,2.34,2.34,0,0,1,2.22,0,2,2,0,0,1,.76.8,2.46,2.46,0,0,1,.28,1.16V24a2.46,2.46,0,0,1-.28,1.16,1.93,1.93,0,0,1-.76.79,2.34,2.34,0,0,1-2.22,0Zm0-16.45a2,2,0,0,1-.75-.75,2.12,2.12,0,0,1-.26-1.07,2.11,2.11,0,0,1,.26-1.06,1.93,1.93,0,0,1,.75-.75,2.42,2.42,0,0,1,2.22,0,2,2,0,0,1,.75.75,2.31,2.31,0,0,1,0,2.13,2.07,2.07,0,0,1-.75.75,2.42,2.42,0,0,1-2.22,0Z"/><path d="M87.88,26.47l-12-12A9.75,9.75,0,0,0,74.4,2.81h0a9.59,9.59,0,0,0-13.57,0,10,10,0,0,0-1.35,1.71A9.63,9.63,0,0,0,72.53,17.9l6.78,6.78L76,28c-2.23,2.24,1.07,5.72,3.39,3.4l3.3-3.31,1.79,1.79.19.16C86.91,31.88,90.05,28.64,87.88,26.47ZM71,13A4.79,4.79,0,0,1,64,6.54c.09-.11.17-.23.27-.34A4.8,4.8,0,0,1,71,13Z"/><path d="M25.71,35.86a10.53,10.53,0,0,1,5.05-1.1,10.2,10.2,0,0,1,7.44,3.09l3.14-3.09a12.32,12.32,0,0,0-4.65-3.25,16.53,16.53,0,0,0-6.14-1.12,15.91,15.91,0,0,0-7.49,1.91,13.35,13.35,0,0,0-5.19,5,14.3,14.3,0,0,0,0,14.21,13.26,13.26,0,0,0,5.19,4.94,15.52,15.52,0,0,0,7.4,1.78,19.26,19.26,0,0,0,5.69-.88A14.83,14.83,0,0,0,41,54.76V47.49h0V43.92H31v3.57h5.19l0,4.68a10.75,10.75,0,0,1-5.46,1.39,10.13,10.13,0,0,1-5-1.23,8.83,8.83,0,0,1-3.44-3.39A9.21,9.21,0,0,1,21,44.11a9.53,9.53,0,0,1,1.26-4.92A8.74,8.74,0,0,1,25.71,35.86Z"/><polygon points="66.47 30.77 66.47 41.87 52.54 41.87 52.54 30.77 47.54 30.77 47.54 57.71 52.54 57.71 52.54 46.13 66.47 46.13 66.47 57.71 71.44 57.71 71.44 30.77 66.47 30.77"/></g></g>
    </symbol>

  <symbol id="P" viewBox="0 0 32 32">
    <title>PIAF</title>
    <circle fill="#fff" cx="16" cy="16" r="15.25"/>
    <path d="M16,1.5A14.5,14.5,0,1,1,1.5,16,14.51,14.51,0,0,1,16,1.5M16,0A16,16,0,1,0,32,16,16,16,0,0,0,16,0Z"/>
  </symbol>
</svg>
