<?xml version="1.0" encoding="iso-8859-1"?>
<!-- Generator: Adobe Illustrator 18.0.0, SVG Export Plug-In . SVG Version: 6.00 Build 0)  -->
<!DOCTYPE svg PUBLIC "-//W3C//DTD SVG 1.1//EN" "http://www.w3.org/Graphics/SVG/1.1/DTD/svg11.dtd">
<svg version="1.1" id="Capa_1" xmlns="http://www.w3.org/2000/svg" xmlns:xlink="http://www.w3.org/1999/xlink" x="0px" y="0px"
	 viewBox="0 0 322.729 322.729" style="enable-background:new 0 0 322.729 322.729;" xml:space="preserve">
<g>
	<path d="M88.405,115.888c-9.023,0-17.502-3.526-23.877-9.929c-13.135-13.195-13.135-34.661,0-47.851
		c6.376-6.405,14.857-9.932,23.88-9.932s17.504,3.527,23.881,9.932c13.132,13.192,13.13,34.656-0.004,47.848
		C105.912,112.361,97.43,115.888,88.405,115.888z M88.408,67.491c-3.848,0-7.468,1.507-10.193,4.245
		c-5.654,5.677-5.653,14.917,0,20.596c2.724,2.735,6.342,4.241,10.19,4.241c3.849,0,7.467-1.507,10.191-4.243
		c5.655-5.68,5.656-14.918,0.005-20.595C95.876,68.998,92.256,67.491,88.408,67.491z"/>
	<path d="M229.139,322.729c-7.376,0-14.31-2.872-19.525-8.086c-5.216-5.215-8.089-12.149-8.089-19.524s2.873-14.309,8.089-19.524
		l12.716-12.715l-4.01-4.008l-12.718,12.716c-5.216,5.215-12.15,8.086-19.525,8.086c-7.375,0-14.309-2.871-19.525-8.085
		c-5.216-5.216-8.088-12.15-8.088-19.525s2.873-14.309,8.089-19.524l12.716-12.715l-29.63-29.625
		c-13.436,6.437-28.249,9.812-43.262,9.812c-26.713,0-51.827-10.401-70.715-29.288c-18.892-18.888-29.296-44.003-29.296-70.716
		c0-26.714,10.404-51.828,29.296-70.716C54.552,10.402,79.669,0,106.385,0s51.834,10.402,70.725,29.292
		c30.147,30.142,37.69,76.038,19.482,113.964L306.64,253.291c6.271,6.269,9.725,14.605,9.724,23.473
		c0,8.867-3.454,17.203-9.723,23.474c-6.271,6.27-14.608,9.722-23.476,9.722c-8.066,0-15.693-2.857-21.725-8.092l-12.777,12.775
		C243.447,319.857,236.514,322.729,229.139,322.729z M218.32,231.558l31.327,31.322l-26.377,26.373
		c-1.567,1.567-2.43,3.651-2.43,5.866s0.863,4.299,2.43,5.866c1.567,1.566,3.652,2.429,5.869,2.429c2.216,0,4.301-0.863,5.868-2.429
		l26.374-26.372l11.967,11.966c2.622,2.622,6.109,4.066,9.818,4.066c3.709,0,7.196-1.444,9.819-4.066
		c2.622-2.622,4.066-6.108,4.066-9.816c0-3.707-1.444-7.193-4.066-9.814L172.671,146.651l3.695-6.415
		c18.157-31.525,12.847-71.53-12.912-97.286c-15.244-15.241-35.511-23.635-57.069-23.635S64.561,27.708,49.318,42.95
		C34.074,58.19,25.68,78.454,25.68,100.008s8.395,41.817,23.638,57.058c15.241,15.239,35.505,23.631,57.059,23.631
		c14.147,0,28.064-3.707,40.245-10.721l6.414-3.693l53.55,53.542l-26.377,26.373c-1.567,1.567-2.43,3.651-2.43,5.866
		c0,2.216,0.863,4.299,2.43,5.866c1.566,1.566,3.651,2.429,5.868,2.429s4.301-0.863,5.869-2.43L218.32,231.558z"/>
</g>
<g>
</g>
<g>
</g>
<g>
</g>
<g>
</g>
<g>
</g>
<g>
</g>
<g>
</g>
<g>
</g>
<g>
</g>
<g>
</g>
<g>
</g>
<g>
</g>
<g>
</g>
<g>
</g>
<g>
</g>
</svg>
