<svg xmlns="http://www.w3.org/2000/svg" width="756" height="756" viewBox="0 0 756 756"><path d="M61.585 422.116v58.818h22.67v14.24H44.713v-73.058zM135.514 468.447l-8.98-24.533-9.093 24.533zm4.6 12.924h-27.6l-5.585 13.803H89.402l29.464-73.058h15.446l28.808 73.058h-17.527z" fill="#314b3f"/><g transform="matrix(1.33333 0 0 -1.33333 0 756)" fill="#314b3f"><path d="M187.233 197.273c-4.847-2.463-8.789-2.955-12.075-2.955-10.106 0-16.922 3.45-21.524 7.966-4.927 4.765-8.543 11.994-8.543 20.786 0 8.626 3.616 15.854 8.543 20.62 4.847 4.681 11.913 7.884 20.454 7.884 3.616 0 7.805-.739 13.145-3.04v-14.62c-2.793 2.956-6.98 5.83-12.814 5.83-4.6 0-8.298-1.48-11.17-4.27-3.042-2.959-5.178-7.393-5.178-12.652 0-5.666 2.3-9.693 4.764-12.076 1.152-1.148 5.093-4.599 11.83-4.599 3.287 0 7.721.902 12.568 5.668zM209.99 229.476h21.85v20.866h12.651v-54.793H231.84v23.248h-21.85v-23.248h-12.653v54.793h12.653zM271.76 235.23c-2.38-2.301-4.846-6.326-4.846-12.407 0-5.012 1.643-9.037 5.01-12.323 3.533-3.367 7.479-4.519 11.748-4.519 5.586 0 9.529 2.054 12.159 4.684 2.134 2.052 4.766 5.914 4.766 12.241 0 5.667-2.301 9.855-4.766 12.323-2.71 2.627-7.066 4.681-12.077 4.681-4.764 0-9.036-1.726-11.993-4.68m33.269 8.376c5.175-5.012 8.544-12.239 8.544-20.7 0-7.313-2.626-14.788-8.544-20.537-5.093-4.932-11.993-8.05-21.193-8.05-10.27 0-17.25 4.107-21.358 8.05-5.258 4.928-8.544 12.322-8.544 20.37 0 7.888 3.53 15.855 8.46 20.783 3.699 3.7 10.515 8.052 21.442 8.052 8.544 0 15.69-2.628 21.193-7.968M369.353 217.894c0-5.258-.657-11.747-6.08-17.333-5.259-5.422-11.335-6.243-17.085-6.243-5.752 0-11.83.821-17.087 6.243-5.424 5.586-6.081 12.075-6.081 17.333v32.447h12.654v-32.12c0-2.38.163-6.406 2.873-9.2 2.217-2.38 5.257-2.873 7.641-2.873 2.38 0 5.42.493 7.638 2.873 2.711 2.795 2.876 6.82 2.876 9.2v32.12h12.651zM412.315 239.664h-18.317v-10.598h17.415v-10.678h-17.415v-12.16h18.317V195.55h-30.97v54.793h30.97zM441.807 239.664V195.55h-12.65v44.115h-11.913v10.678h36.475v-10.678zM483.862 239.664V195.55h-12.649v44.115H459.3v10.678h36.476v-10.678zM533.396 239.664h-18.315v-10.598h17.413v-10.678h-17.413v-12.16h18.315V195.55H502.43v54.793h30.967zM150.376 147.294h14.159v-6.497h-14.159zM216.303 142.846v-6.907s.07-10.871-9.847-10.871c-9.913 0-9.844 10.87-9.844 10.87v29.614s-.07 10.87 9.844 10.87c9.917 0 9.847-10.87 9.847-10.87v-6.91H209.4v6.91s.27 3.69-2.806 3.69c-2.6 0-2.6-3.69-2.6-3.69v-29.613s0-3.691 2.6-3.691c3.077 0 2.806 3.69 2.806 3.69v6.908zM257.48 169.241c-2.598 0-2.462-3.689-2.462-3.689v-29.614s-.136-3.69 2.461-3.69c2.6 0 2.465 3.69 2.465 3.69v29.614s.135 3.69-2.465 3.69m0-44.175c-9.916 0-9.845 10.871-9.845 10.871v29.614s-.07 10.871 9.845 10.871c9.917 0 9.847-10.87 9.847-10.87v-29.615s.07-10.87-9.847-10.87M309.045 169.241c-2.598 0-2.461-3.689-2.461-3.689v-29.614s-.137-3.69 2.46-3.69c2.599 0 2.466 3.69 2.466 3.69v29.614s.133 3.69-2.465 3.69m0-44.175c-9.913 0-9.847 10.871-9.847 10.871v29.614s-.066 10.871 9.847 10.871c9.917 0 9.847-10.87 9.847-10.87v-29.615s.07-10.87-9.847-10.87M358.63 153.24c4.65 0 5.54 1.71 5.54 7.32 0 5.607-.89 7.792-5.54 7.792zm-7.385 22.635h7.385c6.43 0 12.993-3.488 12.993-15.044 0-11.556-6.563-15.113-12.993-15.113v-20.103h-7.385zM402.399 147.294h14.157v-6.497h-14.157zM281.567 382.087a.789.789 0 011.375 0l3.075 5.445a.79.79 0 01-.13.947l-3.073 3.075a.792.792 0 01-1.118 0l-3.074-3.075a.79.79 0 01-.129-.947zM304.03 401.252a3.2 3.2 0 003.195-3.196 3.2 3.2 0 00-3.196-3.196 3.2 3.2 0 00-3.196 3.195 3.2 3.2 0 003.196 3.196m0-11.503c4.582 0 8.308 3.728 8.308 8.308s-3.726 8.308-8.308 8.308-8.307-3.727-8.307-8.308c0-4.58 3.725-8.308 8.307-8.308M261.852 401.252a3.2 3.2 0 003.196-3.196 3.2 3.2 0 00-3.196-3.196 3.2 3.2 0 00-3.196 3.195 3.2 3.2 0 003.196 3.196m0-11.503c4.582 0 8.308 3.728 8.308 8.308s-3.726 8.308-8.308 8.308c-4.581 0-8.31-3.727-8.31-8.308 0-4.58 3.729-8.308 8.31-8.308"/><path d="M326.169 356.778c-4.608-20.494-16.665-32.974-22.36-38.441a76.7 76.7 0 013.984 12.545c1.569 6.95 2.219 13.674 1.985 20.554-.006.193-.035.38-.077.562a49.412 49.412 0 0118.185 22.554c.139-6.01-.418-11.997-1.717-17.774m-55.152-11.866a48.987 48.987 0 0111.239-1.313c7.694 0 14.98 1.783 21.47 4.949a74.272 74.272 0 00-1.845-16.332c-2.415-10.696-6.664-18.27-9.76-23.135-8.12-5.194-19.32-10.255-34.45-13.325 9.88 15.04 14.362 31.548 13.346 49.156m-30.591-61.684v83.767a49.396 49.396 0 0123.956-20.015c1.587-17.966-2.98-34.741-13.59-49.862l-1.18-1.684c-3.438-4.91-6.265-8.95-9.186-12.206m4.686 132.08c.35.404.703.81 1.114 1.183 1.183 1.212 2.607 2.275 4.11 3.266 1.56.914 3.226 1.714 5.002 2.268.44.145.9.223 1.35.342.46.13.894.204 1.312.256.455.05.778.169 1.34.184l1.616.075.123.008.024-.001.087-.005.348-.018.697-.032c.469 0 .93-.052 1.386-.14.925-.104 1.82-.328 2.714-.555 1.756-.552 3.44-1.283 4.967-2.228 1.483-.994 2.91-2.048 4.054-3.293.633-.568 1.087-1.26 1.647-1.848.465-.652.964-1.27 1.359-1.913.79-1.29 1.453-2.541 1.957-3.704.237-.593.456-1.148.66-1.662l.458-1.447c.305-.878.412-1.653.549-2.141.128-.5.194-.766.194-.766l.194.77c.14.498.243 1.233.55 2.125.14.443.295.934.462 1.468.223.517.429 1.077.662 1.665a30.81 30.81 0 001.966 3.71c.4.642.895 1.263 1.366 1.913.56.59 1.013 1.284 1.653 1.85 1.14 1.249 2.578 2.3 4.066 3.29 1.524.955 3.22 1.67 4.979 2.223l1.348.33c.448.106.854.127 1.28.21l.643.106.808.037.809.037.382.018.064-.005.174-.01c1.877.002 3.73-.371 5.525-.87 1.788-.543 3.459-1.364 5.03-2.27 1.519-.985 2.95-2.05 4.152-3.255.397-.355.74-.744 1.079-1.13a43.206 43.206 0 006.362-22.618c0-23.974-19.505-43.48-43.478-43.48-19.874 0-43.48 15.249-43.48 43.48a43.22 43.22 0 006.336 22.577m37.144 20.9c9.559 0 18.403-3.107 25.588-8.357-1.364.293-2.761.48-4.175.502l-.23.01-.115.006-.248-.011-.405-.024-.808-.05-.808-.05-.954-.143c-.63-.112-1.302-.188-1.887-.36l-1.743-.513c-2.272-.8-4.373-1.928-6.164-3.311-1.756-1.418-3.315-2.953-4.458-4.643-.626-.8-1.07-1.694-1.558-2.5-.396-.864-.798-1.681-1.101-2.497a20.82 20.82 0 01-1.012-3.644 20.73 20.73 0 01-1.004 3.618c-.297.815-.704 1.627-1.093 2.492-.485.806-.932 1.693-1.552 2.496-1.141 1.684-2.684 3.223-4.433 4.642-1.786 1.38-3.876 2.513-6.14 3.324-1.148.348-2.31.717-3.525.869-.6.117-1.204.193-1.818.212l-.916.055-.458.026-.115.005-.058.004h-.03l-.17-.004-.201-.01-1.615-.095c-.515-.02-1.243-.171-1.85-.26-.15-.022-.29-.052-.436-.077 7.168 5.207 15.974 8.289 25.492 8.289m49.13-43.478c0 27.09-22.04 49.13-49.13 49.13-27.092 0-48.717-22.04-48.717-49.13V275.847c0-1.223 1.104-2.34 2.195-2.89a3.235 3.235 0 013.38.288c5.23 3.866 9.072 8.927 13.832 15.678.03.004.06.002.092.007 18.943 3.025 32.639 9.04 42.319 15.244.488.16 8.738 6.323 11.397 8.845 4.905 4.647 19.83 18.792 25.153 42.468 2.653 11.798-.52 37.129-.52 37.244"/></g></svg>
