<svg xmlns="http://www.w3.org/2000/svg" viewBox="0 0 32 32.05">
  <title>Caissier-e accompagnateur-rice</title>
  <circle fill="#fff" cx="16" cy="16" r="15.25"/>
  <path d="M16,1.5A14.5,14.5,0,1,1,1.5,16,14.51,14.51,0,0,1,16,1.5M16,0A16,16,0,1,0,32,16,16,16,0,0,0,16,0Z"/>
  <circle cx="26.75" cy="26.8" r="5.25"/>
  <path d="M21.24,20l1.34,1.32A6.23,6.23,0,0,1,20.15,23a8.24,8.24,0,0,1-3.17.59A8.45,8.45,0,0,1,13.59,23,7.42,7.42,0,0,1,11,21a7.12,7.12,0,0,1-1.51-2.88H7.06V17H9.25c0-.36-.05-.65-.05-.86s0-.49.05-.86H7.06V14.07h2.4A7,7,0,0,1,11,11.2a7.19,7.19,0,0,1,2.62-1.92A8.29,8.29,0,0,1,17,8.59a8.38,8.38,0,0,1,3.18.59,6.36,6.36,0,0,1,2.42,1.7l-1.34,1.33a5.48,5.48,0,0,0-4.16-1.75,5.83,5.83,0,0,0-3.36,1,5.23,5.23,0,0,0-2,2.62h6.66v1.18H11.39a5.81,5.81,0,0,0-.06.86,6,6,0,0,0,.06.86h7v1.18H11.68a5.25,5.25,0,0,0,2,2.63,5.9,5.9,0,0,0,3.36,1A5.5,5.5,0,0,0,21.24,20Z"/>
</svg>
