<svg xmlns="http://www.w3.org/2000/svg" viewBox="0 0 32 32">
  <title>GH en formation</title>
  <circle fill="#fff" cx="16" cy="16" r="15.25"/>
  <path d="M16,1.5A14.5,14.5,0,1,1,1.5,16,14.51,14.51,0,0,1,16,1.5M16,0A16,16,0,1,0,32,16,16,16,0,0,0,16,0Z"/>
  <path d="M12.94,15h1.73v3.92a5.63,5.63,0,0,1-1.77.93,7,7,0,0,1-2.08.32,5.65,5.65,0,0,1-2.71-.65,4.87,4.87,0,0,1-1.9-1.81,5.24,5.24,0,0,1,0-5.2,4.87,4.87,0,0,1,1.9-1.81A5.8,5.8,0,0,1,10.85,10a6,6,0,0,1,2.25.41,4.47,4.47,0,0,1,1.7,1.19l-1.15,1.13a3.72,3.72,0,0,0-2.72-1.13A3.86,3.86,0,0,0,9.08,12a3.21,3.21,0,0,0-1.26,1.22,3.5,3.5,0,0,0-.46,1.8,3.39,3.39,0,0,0,.46,1.77,3.26,3.26,0,0,0,1.26,1.24,3.72,3.72,0,0,0,1.84.45,3.91,3.91,0,0,0,2-.51Z"/>
  <path d="M25.82,10.14V20H24V15.76H18.9V20H17.07V10.14H18.9V14.2H24V10.14Z"/>
  <circle fill="#fff" cx="26.75" cy="26.75" r="4.5"/>
  <path d="M26.75,23A3.75,3.75,0,1,1,23,26.75,3.75,3.75,0,0,1,26.75,23m0-1.5A5.25,5.25,0,1,0,32,26.75a5.25,5.25,0,0,0-5.25-5.25Z"/>
  <rect x="11.03" y="14.95" width="3.65" height="1.31"/>
</svg>
