<svg xmlns="http://www.w3.org/2000/svg" viewBox="0 0 32 32">
  <title>Chouettos</title>
  <circle fill="#fff" cx="16" cy="16" r="15.25"/>
  <path d="M16,1.5A14.5,14.5,0,1,1,1.5,16,14.51,14.51,0,0,1,16,1.5M16,0A16,16,0,1,0,32,16,16,16,0,0,0,16,0Z"/>
  <path d="M30.13,10.49a7.25,7.25,0,0,0-8.68-3.38c-2.92,1-4.46,3.27-5.4,6.33a10.47,10.47,0,0,0-1.37-3.14C11.17,5,4.65,6.05,2.32,10L.21,13.4c2-7,6.59-11.53,13.16-13.18,7.3-.22,15.9,3.62,18.4,13.05Zm-14.07.37a8.8,8.8,0,0,1,3.37-4.73,7.83,7.83,0,0,1,7.78-.46C20.94-.9,10.41-1.09,4.79,5.8,9.55,2.81,14.55,6.62,16.06,10.86Z"/>
  <path d="M21.07,15.59a2.76,2.76,0,0,1,3-2.83,2.88,2.88,0,1,1-.1,5.76A2.75,2.75,0,0,1,21.07,15.59Zm4.05.06C25,15,24.7,14.51,24,14.51a1.05,1.05,0,0,0-1.17,1.11,1,1,0,0,0,1.14,1.15C24.66,16.79,25,16.36,25.12,15.65Z"/>
  <path d="M8.67,12.76a2.88,2.88,0,1,1,0,5.76,2.88,2.88,0,1,1,0-5.76Zm1.18,2.89a1.07,1.07,0,0,0-1.14-1.14,1.05,1.05,0,0,0-1.15,1.13A1.06,1.06,0,0,0,8.7,16.78,1.07,1.07,0,0,0,9.85,15.65Z"/>
  <path d="M16.07,21.41a3.86,3.86,0,0,1-1.22-2.08,1.33,1.33,0,0,1,1.23-1.25c.56,0,1.32.62,1.22,1.27A3.68,3.68,0,0,1,16.07,21.41Z"/>
</svg>
