<svg xmlns="http://www.w3.org/2000/svg" style="display:none;">
  <symbol id="F" viewBox="0 0 32 32">
    <title>Formateur·rice</title>
    <circle fill="#fff" cx="16" cy="16" r="15.25" />
    <path d="M16,1.5A14.5,14.5,0,1,1,1.5,16,14.51,14.51,0,0,1,16,1.5M16,0A16,16,0,1,0,32,16,16,16,0,0,0,16,0Z" />
    <circle cx="26.75" cy="26.8" r="5.25" />
  </symbol>

  <symbol id="CA" viewBox="0 0 32 32">
    <title>Caissier·ère</title>
    <circle fill="#fff" cx="16" cy="16" r="15.25" />
    <path d="M16,1.5A14.5,14.5,0,1,1,1.5,16,14.51,14.51,0,0,1,16,1.5M16,0A16,16,0,1,0,32,16,16,16,0,0,0,16,0Z" />
    <path d="M21.24,20l1.34,1.32A6.23,6.23,0,0,1,20.15,23a8.24,8.24,0,0,1-3.17.59A8.45,8.45,0,0,1,13.59,23,7.42,7.42,0,0,1,11,21a7.12,7.12,0,0,1-1.51-2.88H7.06V17H9.25c0-.36-.05-.65-.05-.86s0-.49.05-.86H7.06V14.07h2.4A7,7,0,0,1,11,11.2a7.19,7.19,0,0,1,2.62-1.92A8.29,8.29,0,0,1,17,8.59a8.38,8.38,0,0,1,3.18.59,6.36,6.36,0,0,1,2.42,1.7l-1.34,1.33a5.48,5.48,0,0,0-4.16-1.75,5.83,5.83,0,0,0-3.36,1,5.23,5.23,0,0,0-2,2.62h6.66v1.18H11.39a5.81,5.81,0,0,0-.06.86,6,6,0,0,0,.06.86h7v1.18H11.68a5.25,5.25,0,0,0,2,2.63,5.9,5.9,0,0,0,3.36,1A5.5,5.5,0,0,0,21.24,20Z" />
  </symbol>

  <symbol id="CA_INF" viewBox="0 0 91.21 89.72">
    <title>Caissier·ère</title>
   <defs><style>.cls-1{fill:#fff;}.cls-2{fill:none;}</style></defs><g id="Calque_2" data-name="Calque 2"><g id="Calque_5" data-name="Calque 5"><circle class="cls-1" cx="45.62" cy="46.01" r="43.71"/><path d="M45.62,6.39A39.62,39.62,0,1,1,6,46,39.67,39.67,0,0,1,45.62,6.39m0-4.1A43.72,43.72,0,1,0,89.34,46,43.72,43.72,0,0,0,45.62,2.29Z"/><path d="M59.94,56.69l3.66,3.6A16.94,16.94,0,0,1,57,64.88a22.49,22.49,0,0,1-8.66,1.61A22.92,22.92,0,0,1,39,64.88,20.34,20.34,0,0,1,32,59.42a19.54,19.54,0,0,1-4.12-7.87H21.2V48.49h6c0-1-.13-1.78-.13-2.35a17.17,17.17,0,0,1,.13-2.35h-6V40.48h6.56A19.1,19.1,0,0,1,32,32.64a19.75,19.75,0,0,1,7.16-5.24,22.74,22.74,0,0,1,9.24-1.89A23,23,0,0,1,57,27.12a17.41,17.41,0,0,1,6.62,4.65L60,35.4a15,15,0,0,0-11.37-4.78,16,16,0,0,0-9.18,2.73A14.28,14.28,0,0,0,34,40.51H52.18v3.23H33a17.26,17.26,0,0,0,0,4.69H52.15v3.23H33.82a14.31,14.31,0,0,0,5.47,7.18,16.11,16.11,0,0,0,9.18,2.74A15,15,0,0,0,59.94,56.69Z"/><circle cx="16.5" cy="16.64" r="16.5"/><path class="cls-1" d="M15.23,28.19a2.23,2.23,0,0,1-.88-.92A2.77,2.77,0,0,1,14,25.93v-10a2.79,2.79,0,0,1,.32-1.34,2.21,2.21,0,0,1,.88-.91,2.43,2.43,0,0,1,1.27-.33,2.45,2.45,0,0,1,1.27.33,2.21,2.21,0,0,1,.88.91A2.79,2.79,0,0,1,19,15.9v10a2.77,2.77,0,0,1-.32,1.34,2.23,2.23,0,0,1-.88.92,2.55,2.55,0,0,1-1.27.32A2.52,2.52,0,0,1,15.23,28.19Zm0-18.93a2.18,2.18,0,0,1-.86-.87,2.48,2.48,0,0,1-.3-1.22A2.48,2.48,0,0,1,14.36,6a2.25,2.25,0,0,1,.86-.87,2.8,2.8,0,0,1,2.56,0,2.25,2.25,0,0,1,.86.87,2.48,2.48,0,0,1,.3,1.22,2.48,2.48,0,0,1-.3,1.22,2.18,2.18,0,0,1-.86.87,2.8,2.8,0,0,1-2.56,0Z"/><path class="cls-2" d="M90.45,27.66,78,15.16A10.19,10.19,0,0,0,76.36,2.94h0a10,10,0,0,0-14.18,0,10.31,10.31,0,0,0-1.41,1.78,10.05,10.05,0,0,0,13.63,14l7.09,7.09L78,29.24c-2.33,2.34,1.12,6,3.54,3.55L85,29.34,86.9,31.2c.07.07.14.11.2.17C89.43,33.32,92.71,29.92,90.45,27.66ZM72.81,13.57a5,5,0,0,1-7.37-6.74c.1-.11.18-.24.29-.35a5,5,0,0,1,8,5.88A4.82,4.82,0,0,1,72.81,13.57Z"/></g></g>
  </symbol>

  <symbol id="CA_KEY" viewBox="0 0 89.32 89.7">
    <title>Caissier·ère</title>
    <defs><style>.cls-1{fill:#fff;}</style></defs><g id="Calque_2" data-name="Calque 2"><g id="Calque_7" data-name="Calque 7"><path class="cls-1" d="M87.43,46A43.66,43.66,0,1,1,60.73,5.71c-1.65,3.32-.27,9,1.91,10.47s8.68.61,11.13-1.93A43.58,43.58,0,0,1,87.43,46Z"/><path d="M82.8,39.59A39.72,39.72,0,1,1,51.09,7.08a16.36,16.36,0,0,1,1.24-3.93A43.79,43.79,0,1,0,86.87,39.09,11.71,11.71,0,0,1,82.8,39.59Z"/><path d="M78,33.6a2.44,2.44,0,0,1-2.16-1.52,2.17,2.17,0,0,1,.54-2.46l3.68-3.68-7.51-7.51-.17.09a10,10,0,0,1-5,1.38A10,10,0,0,1,58.89,4.67a10.17,10.17,0,0,1,1.39-1.76,9.92,9.92,0,0,1,14,0A10.08,10.08,0,0,1,75.89,15l-.09.16L88.62,28a2.12,2.12,0,0,1,.54,2.39A2.51,2.51,0,0,1,87,31.94h0a2.13,2.13,0,0,1-1.38-.53l-.08-.07a.48.48,0,0,1-.11-.09l-2.07-2.07-3.68,3.68A2.3,2.3,0,0,1,78,33.6Zm-10.7-29a5.3,5.3,0,0,0-3.77,1.57,1.57,1.57,0,0,0-.21.24l-.1.13a5.33,5.33,0,0,0,7.86,7.18A5.39,5.39,0,0,0,72,12.42a5.32,5.32,0,0,0-4.7-7.83Z"/><path d="M58,56.67l3.66,3.6a16.94,16.94,0,0,1-6.64,4.59,22.49,22.49,0,0,1-8.66,1.61,22.92,22.92,0,0,1-9.26-1.61,20.34,20.34,0,0,1-7.08-5.46,19.54,19.54,0,0,1-4.12-7.87H19.29V48.47h6c0-1-.13-1.78-.13-2.35a17.17,17.17,0,0,1,.13-2.35h-6V40.46h6.56a19.1,19.1,0,0,1,4.2-7.84,19.75,19.75,0,0,1,7.16-5.24,22.74,22.74,0,0,1,9.24-1.89,23,23,0,0,1,8.68,1.61,17.41,17.41,0,0,1,6.62,4.65l-3.67,3.63A15,15,0,0,0,46.72,30.6a16,16,0,0,0-9.18,2.73,14.36,14.36,0,0,0-5.47,7.16h18.2v3.23H31.12a16.26,16.26,0,0,0,0,4.69H50.24v3.23H31.91a14.31,14.31,0,0,0,5.47,7.18,16.11,16.11,0,0,0,9.18,2.74A15.08,15.08,0,0,0,58,56.67Z"/><path d="M78,33.6a2.44,2.44,0,0,1-2.16-1.52,2.17,2.17,0,0,1,.54-2.46l3.68-3.68-7.51-7.51-.17.09a10.07,10.07,0,0,1-5,1.38A10,10,0,0,1,58.89,4.67a10.17,10.17,0,0,1,1.39-1.76,9.92,9.92,0,0,1,14,0A10.08,10.08,0,0,1,75.89,15l-.09.16L88.62,28a2.1,2.1,0,0,1,.53,2.39A2.48,2.48,0,0,1,87,31.94h0a2.11,2.11,0,0,1-1.38-.53l-.09-.07a.81.81,0,0,1-.1-.09l-2.07-2.07-3.69,3.68A2.26,2.26,0,0,1,78,33.6Zm-10.7-29a5.31,5.31,0,0,0-3.78,1.57,2.31,2.31,0,0,0-.2.24l-.1.13a5.33,5.33,0,0,0,7.86,7.18A5.69,5.69,0,0,0,72,12.42a5.32,5.32,0,0,0-4.7-7.83Z"/></g></g>
  </symbol>

  <symbol id="CA_KEY_INF" viewBox="0 0 88.61 89">
    <title>Caissier·ère</title>
    <defs><style>.cls-1{fill:#fff;}</style></defs><g id="Calque_2" data-name="Calque 2"><g id="Calque_7" data-name="Calque 7"><path class="cls-1" d="M89.34,46A43.66,43.66,0,1,1,62.64,5.71c-1.65,3.32-.27,9,1.91,10.47s8.68.61,11.13-1.93A43.58,43.58,0,0,1,89.34,46Z"/><path d="M84.71,39.59A39.72,39.72,0,1,1,53,7.08a16.36,16.36,0,0,1,1.24-3.93A43.79,43.79,0,1,0,88.78,39.09,11.71,11.71,0,0,1,84.71,39.59Z"/><path d="M79.91,33.6a2.44,2.44,0,0,1-2.16-1.52,2.17,2.17,0,0,1,.54-2.46L82,25.94l-7.51-7.51-.16.09a10.1,10.1,0,0,1-5.06,1.38A10,10,0,0,1,60.8,4.67a10.17,10.17,0,0,1,1.39-1.76,9.92,9.92,0,0,1,14,0A10.08,10.08,0,0,1,77.8,15l-.09.16L90.53,28a2.12,2.12,0,0,1,.54,2.39,2.51,2.51,0,0,1-2.21,1.54h0a2.13,2.13,0,0,1-1.38-.53l-.08-.07a.48.48,0,0,1-.11-.09l-2.07-2.07-3.68,3.68A2.3,2.3,0,0,1,79.91,33.6Zm-10.7-29a5.3,5.3,0,0,0-3.77,1.57,1.57,1.57,0,0,0-.21.24l-.1.13A5.33,5.33,0,0,0,73,13.71a5.39,5.39,0,0,0,.92-1.29,5.32,5.32,0,0,0-4.7-7.83Z"/><path d="M59.94,56.67l3.66,3.6A16.94,16.94,0,0,1,57,64.86a22.49,22.49,0,0,1-8.66,1.61A22.92,22.92,0,0,1,39,64.86,20.34,20.34,0,0,1,32,59.4a19.54,19.54,0,0,1-4.12-7.87H21.2V48.47h6c0-1-.13-1.78-.13-2.35a17.17,17.17,0,0,1,.13-2.35h-6V40.46h6.56A19.1,19.1,0,0,1,32,32.62a19.75,19.75,0,0,1,7.16-5.24,22.74,22.74,0,0,1,9.24-1.89A23,23,0,0,1,57,27.1a17.41,17.41,0,0,1,6.62,4.65L60,35.38A15,15,0,0,0,48.63,30.6a16,16,0,0,0-9.18,2.73A14.28,14.28,0,0,0,34,40.49H52.18v3.23H33a17.26,17.26,0,0,0,0,4.69H52.15v3.23H33.82a14.31,14.31,0,0,0,5.47,7.18,16.11,16.11,0,0,0,9.18,2.74A15.08,15.08,0,0,0,59.94,56.67Z"/><circle cx="16.5" cy="16.62" r="16.5"/><path class="cls-1" d="M15.23,28.17a2.23,2.23,0,0,1-.88-.92A2.77,2.77,0,0,1,14,25.91v-10a2.79,2.79,0,0,1,.32-1.34,2.21,2.21,0,0,1,.88-.91,2.43,2.43,0,0,1,1.27-.33,2.45,2.45,0,0,1,1.27.33,2.21,2.21,0,0,1,.88.91A2.79,2.79,0,0,1,19,15.88v10a2.77,2.77,0,0,1-.32,1.34,2.23,2.23,0,0,1-.88.92,2.55,2.55,0,0,1-1.27.32A2.52,2.52,0,0,1,15.23,28.17Zm0-18.93a2.18,2.18,0,0,1-.86-.87,2.48,2.48,0,0,1-.3-1.22,2.48,2.48,0,0,1,.3-1.22,2.25,2.25,0,0,1,.86-.87,2.8,2.8,0,0,1,2.56,0,2.25,2.25,0,0,1,.86.87,2.48,2.48,0,0,1,.3,1.22,2.48,2.48,0,0,1-.3,1.22,2.18,2.18,0,0,1-.86.87,2.8,2.8,0,0,1-2.56,0Z"/><path d="M79.91,33.6a2.44,2.44,0,0,1-2.16-1.52,2.17,2.17,0,0,1,.54-2.46L82,25.94l-7.51-7.51-.17.09a10.07,10.07,0,0,1-5.05,1.38A10,10,0,0,1,60.8,4.67a10.17,10.17,0,0,1,1.39-1.76,9.92,9.92,0,0,1,14,0A10.08,10.08,0,0,1,77.8,15l-.09.16L90.53,28a2.1,2.1,0,0,1,.53,2.39,2.48,2.48,0,0,1-2.2,1.54h0a2.11,2.11,0,0,1-1.38-.53l-.09-.07a.81.81,0,0,1-.1-.09l-2.07-2.07-3.69,3.68A2.26,2.26,0,0,1,79.91,33.6Zm-10.7-29a5.27,5.27,0,0,0-3.77,1.57,1.57,1.57,0,0,0-.21.24l-.1.13A5.33,5.33,0,0,0,73,13.71a5.69,5.69,0,0,0,.92-1.29,5.32,5.32,0,0,0-4.7-7.83Z"/></g></g>
  </symbol>

  <symbol id="CAF" viewBox="0 0 32 32">
    <title>Caissier·ère formateur·ice</title>
    <circle fill="#fff" cx="16" cy="16" r="15.25"/>
    <path d="M16,1.5A14.5,14.5,0,1,1,1.5,16,14.51,14.51,0,0,1,16,1.5M16,0A16,16,0,1,0,32,16,16,16,0,0,0,16,0Z"/>
    <circle cx="26.75" cy="26.8" r="5.25"/>
    <path d="M21.24,20l1.34,1.32A6.23,6.23,0,0,1,20.15,23a8.24,8.24,0,0,1-3.17.59A8.45,8.45,0,0,1,13.59,23,7.42,7.42,0,0,1,11,21a7.12,7.12,0,0,1-1.51-2.88H7.06V17H9.25c0-.36-.05-.65-.05-.86s0-.49.05-.86H7.06V14.07h2.4A7,7,0,0,1,11,11.2a7.19,7.19,0,0,1,2.62-1.92A8.29,8.29,0,0,1,17,8.59a8.38,8.38,0,0,1,3.18.59,6.36,6.36,0,0,1,2.42,1.7l-1.34,1.33a5.48,5.48,0,0,0-4.16-1.75,5.83,5.83,0,0,0-3.36,1,5.23,5.23,0,0,0-2,2.62h6.66v1.18H11.39a5.81,5.81,0,0,0-.06.86,6,6,0,0,0,.06.86h7v1.18H11.68a5.25,5.25,0,0,0,2,2.63,5.9,5.9,0,0,0,3.36,1A5.5,5.5,0,0,0,21.24,20Z"/>
  </symbol>

  <symbol id="CAF_INF" viewBox="0 0 91.21 89.72">
    <title>Caissier·ère formateur·ice</title>
    <defs><style>.cls-1{fill:#fff;}.cls-2{fill:none;}</style></defs><g id="Calque_2" data-name="Calque 2"><g id="Calque_5" data-name="Calque 5"><circle class="cls-1" cx="45.62" cy="46.01" r="43.71"/><path d="M45.62,6.39A39.62,39.62,0,1,1,6,46,39.67,39.67,0,0,1,45.62,6.39m0-4.1A43.72,43.72,0,1,0,89.34,46,43.72,43.72,0,0,0,45.62,2.29Z"/><path d="M59.94,56.69l3.66,3.6A16.94,16.94,0,0,1,57,64.88a22.49,22.49,0,0,1-8.66,1.61A22.92,22.92,0,0,1,39,64.88,20.34,20.34,0,0,1,32,59.42a19.54,19.54,0,0,1-4.12-7.87H21.2V48.49h6c0-1-.13-1.78-.13-2.35a17.17,17.17,0,0,1,.13-2.35h-6V40.48h6.56A19.1,19.1,0,0,1,32,32.64a19.75,19.75,0,0,1,7.16-5.24,22.74,22.74,0,0,1,9.24-1.89A23,23,0,0,1,57,27.12a17.41,17.41,0,0,1,6.62,4.65L60,35.4a15,15,0,0,0-11.37-4.78,16,16,0,0,0-9.18,2.73A14.28,14.28,0,0,0,34,40.51H52.18v3.23H33a17.26,17.26,0,0,0,0,4.69H52.15v3.23H33.82a14.31,14.31,0,0,0,5.47,7.18,16.11,16.11,0,0,0,9.18,2.74A15,15,0,0,0,59.94,56.69Z"/><circle cx="75.24" cy="75.38" r="14.34"/><circle cx="16.5" cy="16.64" r="16.5"/><path class="cls-1" d="M15.23,28.19a2.23,2.23,0,0,1-.88-.92A2.77,2.77,0,0,1,14,25.93v-10a2.79,2.79,0,0,1,.32-1.34,2.21,2.21,0,0,1,.88-.91,2.43,2.43,0,0,1,1.27-.33,2.45,2.45,0,0,1,1.27.33,2.21,2.21,0,0,1,.88.91A2.79,2.79,0,0,1,19,15.9v10a2.77,2.77,0,0,1-.32,1.34,2.23,2.23,0,0,1-.88.92,2.55,2.55,0,0,1-1.27.32A2.52,2.52,0,0,1,15.23,28.19Zm0-18.93a2.18,2.18,0,0,1-.86-.87,2.48,2.48,0,0,1-.3-1.22A2.48,2.48,0,0,1,14.36,6a2.25,2.25,0,0,1,.86-.87,2.8,2.8,0,0,1,2.56,0,2.25,2.25,0,0,1,.86.87,2.48,2.48,0,0,1,.3,1.22,2.48,2.48,0,0,1-.3,1.22,2.18,2.18,0,0,1-.86.87,2.8,2.8,0,0,1-2.56,0Z"/><path class="cls-2" d="M90.45,27.66,78,15.16A10.19,10.19,0,0,0,76.36,2.94h0a10,10,0,0,0-14.18,0,10.31,10.31,0,0,0-1.41,1.78,10.05,10.05,0,0,0,13.63,14l7.09,7.09L78,29.24c-2.33,2.34,1.12,6,3.54,3.55L85,29.34,86.9,31.2c.07.07.14.11.2.17C89.43,33.32,92.71,29.92,90.45,27.66ZM72.81,13.57a5,5,0,0,1-7.37-6.74c.1-.11.18-.24.29-.35a5,5,0,0,1,8,5.88A4.82,4.82,0,0,1,72.81,13.57Z"/></g></g>
  </symbol>

  <symbol id="CAF_KEY" viewBox="0 0 89.32 89.7">
    <title>Caissier·ère formateur·ice</title>
    <defs><style>.cls-1{fill:#fff;}</style></defs><g id="Calque_2" data-name="Calque 2"><g id="Calque_7" data-name="Calque 7"><path class="cls-1" d="M87.43,46A43.66,43.66,0,1,1,60.73,5.71c-1.65,3.32-.27,9,1.91,10.47s8.68.61,11.13-1.93A43.58,43.58,0,0,1,87.43,46Z"/><path d="M82.8,39.59A39.72,39.72,0,1,1,51.09,7.08a16.36,16.36,0,0,1,1.24-3.93A43.79,43.79,0,1,0,86.87,39.09,11.71,11.71,0,0,1,82.8,39.59Z"/><path d="M78,33.6a2.44,2.44,0,0,1-2.16-1.52,2.17,2.17,0,0,1,.54-2.46l3.68-3.68-7.51-7.51-.17.09a10,10,0,0,1-5,1.38A10,10,0,0,1,58.89,4.67a10.17,10.17,0,0,1,1.39-1.76,9.92,9.92,0,0,1,14,0A10.08,10.08,0,0,1,75.89,15l-.09.16L88.62,28a2.12,2.12,0,0,1,.54,2.39A2.51,2.51,0,0,1,87,31.94h0a2.13,2.13,0,0,1-1.38-.53l-.08-.07a.48.48,0,0,1-.11-.09l-2.07-2.07-3.68,3.68A2.3,2.3,0,0,1,78,33.6Zm-10.7-29a5.3,5.3,0,0,0-3.77,1.57,1.57,1.57,0,0,0-.21.24l-.1.13a5.33,5.33,0,0,0,7.86,7.18A5.39,5.39,0,0,0,72,12.42a5.32,5.32,0,0,0-4.7-7.83Z"/><path d="M58,56.67l3.66,3.6a16.94,16.94,0,0,1-6.64,4.59,22.49,22.49,0,0,1-8.66,1.61,22.92,22.92,0,0,1-9.26-1.61,20.34,20.34,0,0,1-7.08-5.46,19.54,19.54,0,0,1-4.12-7.87H19.29V48.47h6c0-1-.13-1.78-.13-2.35a17.17,17.17,0,0,1,.13-2.35h-6V40.46h6.56a19.1,19.1,0,0,1,4.2-7.84,19.75,19.75,0,0,1,7.16-5.24,22.74,22.74,0,0,1,9.24-1.89,23,23,0,0,1,8.68,1.61,17.41,17.41,0,0,1,6.62,4.65l-3.67,3.63A15,15,0,0,0,46.72,30.6a16,16,0,0,0-9.18,2.73,14.36,14.36,0,0,0-5.47,7.16h18.2v3.23H31.12a16.26,16.26,0,0,0,0,4.69H50.24v3.23H31.91a14.31,14.31,0,0,0,5.47,7.18,16.11,16.11,0,0,0,9.18,2.74A15.08,15.08,0,0,0,58,56.67Z"/><circle cx="73.33" cy="75.36" r="14.34"/><path d="M78,33.6a2.44,2.44,0,0,1-2.16-1.52,2.17,2.17,0,0,1,.54-2.46l3.68-3.68-7.51-7.51-.17.09a10.07,10.07,0,0,1-5,1.38A10,10,0,0,1,58.89,4.67a10.17,10.17,0,0,1,1.39-1.76,9.92,9.92,0,0,1,14,0A10.08,10.08,0,0,1,75.89,15l-.09.16L88.62,28a2.1,2.1,0,0,1,.53,2.39A2.48,2.48,0,0,1,87,31.94h0a2.11,2.11,0,0,1-1.38-.53l-.09-.07a.81.81,0,0,1-.1-.09l-2.07-2.07-3.69,3.68A2.26,2.26,0,0,1,78,33.6Zm-10.7-29a5.31,5.31,0,0,0-3.78,1.57,2.31,2.31,0,0,0-.2.24l-.1.13a5.33,5.33,0,0,0,7.86,7.18A5.69,5.69,0,0,0,72,12.42a5.32,5.32,0,0,0-4.7-7.83Z"/></g></g>
  </symbol>

  <symbol id="CAF_KEY_INF" viewBox="0 0 91.23 89.7">
    <title>Caissier·ère formateur·ice</title>
    <defs><style>.cls-1{fill:#fff;}</style></defs><g id="Calque_2" data-name="Calque 2"><g id="Calque_7" data-name="Calque 7"><path class="cls-1" d="M89.34,46A43.66,43.66,0,1,1,62.64,5.71c-1.65,3.32-.27,9,1.91,10.47s8.68.61,11.13-1.93A43.58,43.58,0,0,1,89.34,46Z"/><path d="M84.71,39.59A39.72,39.72,0,1,1,53,7.08a16.36,16.36,0,0,1,1.24-3.93A43.79,43.79,0,1,0,88.78,39.09,11.71,11.71,0,0,1,84.71,39.59Z"/><path d="M79.91,33.6a2.44,2.44,0,0,1-2.16-1.52,2.17,2.17,0,0,1,.54-2.46L82,25.94l-7.51-7.51-.16.09a10.1,10.1,0,0,1-5.06,1.38A10,10,0,0,1,60.8,4.67a10.17,10.17,0,0,1,1.39-1.76,9.92,9.92,0,0,1,14,0A10.08,10.08,0,0,1,77.8,15l-.09.16L90.53,28a2.12,2.12,0,0,1,.54,2.39,2.51,2.51,0,0,1-2.21,1.54h0a2.13,2.13,0,0,1-1.38-.53l-.08-.07a.48.48,0,0,1-.11-.09l-2.07-2.07-3.68,3.68A2.3,2.3,0,0,1,79.91,33.6Zm-10.7-29a5.3,5.3,0,0,0-3.77,1.57,1.57,1.57,0,0,0-.21.24l-.1.13A5.33,5.33,0,0,0,73,13.71a5.39,5.39,0,0,0,.92-1.29,5.32,5.32,0,0,0-4.7-7.83Z"/><path d="M59.94,56.67l3.66,3.6A16.94,16.94,0,0,1,57,64.86a22.49,22.49,0,0,1-8.66,1.61A22.92,22.92,0,0,1,39,64.86,20.34,20.34,0,0,1,32,59.4a19.54,19.54,0,0,1-4.12-7.87H21.2V48.47h6c0-1-.13-1.78-.13-2.35a17.17,17.17,0,0,1,.13-2.35h-6V40.46h6.56A19.1,19.1,0,0,1,32,32.62a19.75,19.75,0,0,1,7.16-5.24,22.74,22.74,0,0,1,9.24-1.89A23,23,0,0,1,57,27.1a17.41,17.41,0,0,1,6.62,4.65L60,35.38A15,15,0,0,0,48.63,30.6a16,16,0,0,0-9.18,2.73A14.28,14.28,0,0,0,34,40.49H52.18v3.23H33a17.26,17.26,0,0,0,0,4.69H52.15v3.23H33.82a14.31,14.31,0,0,0,5.47,7.18,16.11,16.11,0,0,0,9.18,2.74A15.08,15.08,0,0,0,59.94,56.67Z"/><circle cx="75.24" cy="75.36" r="14.34"/><circle cx="16.5" cy="16.62" r="16.5"/><path class="cls-1" d="M15.23,28.17a2.23,2.23,0,0,1-.88-.92A2.77,2.77,0,0,1,14,25.91v-10a2.79,2.79,0,0,1,.32-1.34,2.21,2.21,0,0,1,.88-.91,2.43,2.43,0,0,1,1.27-.33,2.45,2.45,0,0,1,1.27.33,2.21,2.21,0,0,1,.88.91A2.79,2.79,0,0,1,19,15.88v10a2.77,2.77,0,0,1-.32,1.34,2.23,2.23,0,0,1-.88.92,2.55,2.55,0,0,1-1.27.32A2.52,2.52,0,0,1,15.23,28.17Zm0-18.93a2.18,2.18,0,0,1-.86-.87,2.48,2.48,0,0,1-.3-1.22,2.48,2.48,0,0,1,.3-1.22,2.25,2.25,0,0,1,.86-.87,2.8,2.8,0,0,1,2.56,0,2.25,2.25,0,0,1,.86.87,2.48,2.48,0,0,1,.3,1.22,2.48,2.48,0,0,1-.3,1.22,2.18,2.18,0,0,1-.86.87,2.8,2.8,0,0,1-2.56,0Z"/><path d="M79.91,33.6a2.44,2.44,0,0,1-2.16-1.52,2.17,2.17,0,0,1,.54-2.46L82,25.94l-7.51-7.51-.17.09a10.07,10.07,0,0,1-5.05,1.38A10,10,0,0,1,60.8,4.67a10.17,10.17,0,0,1,1.39-1.76,9.92,9.92,0,0,1,14,0A10.08,10.08,0,0,1,77.8,15l-.09.16L90.53,28a2.1,2.1,0,0,1,.53,2.39,2.48,2.48,0,0,1-2.2,1.54h0a2.11,2.11,0,0,1-1.38-.53l-.09-.07a.81.81,0,0,1-.1-.09l-2.07-2.07-3.69,3.68A2.26,2.26,0,0,1,79.91,33.6Zm-10.7-29a5.27,5.27,0,0,0-3.77,1.57,1.57,1.57,0,0,0-.21.24l-.1.13A5.33,5.33,0,0,0,73,13.71a5.69,5.69,0,0,0,.92-1.29,5.32,5.32,0,0,0-4.7-7.83Z"/></g></g>
  </symbol>

  <symbol id="CH" viewBox="0 0 32 32">
    <title>Chouettos</title>
    <circle fill="#fff" cx="16" cy="16" r="15.25"/>
    <path d="M16,1.5A14.5,14.5,0,1,1,1.5,16,14.51,14.51,0,0,1,16,1.5M16,0A16,16,0,1,0,32,16,16,16,0,0,0,16,0Z"/>
    <path d="M30.13,10.49a7.25,7.25,0,0,0-8.68-3.38c-2.92,1-4.46,3.27-5.4,6.33a10.47,10.47,0,0,0-1.37-3.14C11.17,5,4.65,6.05,2.32,10L.21,13.4c2-7,6.59-11.53,13.16-13.18,7.3-.22,15.9,3.62,18.4,13.05Zm-14.07.37a8.8,8.8,0,0,1,3.37-4.73,7.83,7.83,0,0,1,7.78-.46C20.94-.9,10.41-1.09,4.79,5.8,9.55,2.81,14.55,6.62,16.06,10.86Z"/>
    <path d="M21.07,15.59a2.76,2.76,0,0,1,3-2.83,2.88,2.88,0,1,1-.1,5.76A2.75,2.75,0,0,1,21.07,15.59Zm4.05.06C25,15,24.7,14.51,24,14.51a1.05,1.05,0,0,0-1.17,1.11,1,1,0,0,0,1.14,1.15C24.66,16.79,25,16.36,25.12,15.65Z"/>
    <path d="M8.67,12.76a2.88,2.88,0,1,1,0,5.76,2.88,2.88,0,1,1,0-5.76Zm1.18,2.89a1.07,1.07,0,0,0-1.14-1.14,1.05,1.05,0,0,0-1.15,1.13A1.06,1.06,0,0,0,8.7,16.78,1.07,1.07,0,0,0,9.85,15.65Z"/>
    <path d="M16.07,21.41a3.86,3.86,0,0,1-1.22-2.08,1.33,1.33,0,0,1,1.23-1.25c.56,0,1.32.62,1.22,1.27A3.68,3.68,0,0,1,16.07,21.41Z"/>
  </symbol>

  <symbol id="CH_INF" viewBox="0 0 91.21 89.72">
    <title>Chouettos</title>
    <defs><style>.cls-1{fill:#fff;}.cls-2{fill:none;}</style></defs><g id="Calque_2" data-name="Calque 2"><g id="Calque_5" data-name="Calque 5"><circle class="cls-1" cx="45.62" cy="46.01" r="43.71"/><path class="cls-2" d="M90.45,27.66,78,15.16A10.19,10.19,0,0,0,76.36,2.94h0a10,10,0,0,0-14.18,0,10.31,10.31,0,0,0-1.41,1.78,10.05,10.05,0,0,0,13.63,14l7.09,7.09L78,29.24c-2.33,2.34,1.12,6,3.54,3.55L85,29.34,86.9,31.2c.07.07.14.11.2.17C89.43,33.32,92.71,29.92,90.45,27.66ZM72.81,13.57a5,5,0,0,1-7.37-6.74c.1-.11.18-.24.29-.35a5,5,0,0,1,8,5.88A4.82,4.82,0,0,1,72.81,13.57Z"/><path d="M88.67,38.44l.07.11-.12-.41A43.68,43.68,0,0,0,28.8,5.67,16.48,16.48,0,1,0,5.43,28.85,43.71,43.71,0,1,0,89.34,46,43.94,43.94,0,0,0,88.67,38.44Zm-43.05-32A39.42,39.42,0,0,1,71.56,16.1,21.45,21.45,0,0,0,55,19,24,24,0,0,0,45.82,32,26.92,26.92,0,0,0,33,17.24c0-.2,0-.4,0-.6a16.37,16.37,0,0,0-1.82-7.51A39.41,39.41,0,0,1,45.62,6.39ZM14.36,6a2.25,2.25,0,0,1,.86-.87,2.8,2.8,0,0,1,2.56,0,2.25,2.25,0,0,1,.86.87,2.48,2.48,0,0,1,.3,1.22,2.48,2.48,0,0,1-.3,1.22,2.18,2.18,0,0,1-.86.87,2.8,2.8,0,0,1-2.56,0,2.18,2.18,0,0,1-.86-.87,2.48,2.48,0,0,1-.3-1.22A2.48,2.48,0,0,1,14.36,6ZM14,23.69V15.9a2.79,2.79,0,0,1,.32-1.34,2.21,2.21,0,0,1,.88-.91,2.43,2.43,0,0,1,1.27-.33l.1,0a2.57,2.57,0,0,1,.62.08,2.31,2.31,0,0,1,1.43,1.14A2.79,2.79,0,0,1,19,15.9v10a2.77,2.77,0,0,1-.32,1.34,2.23,2.23,0,0,1-.88.92,2.55,2.55,0,0,1-1.27.32,2.52,2.52,0,0,1-1.27-.32,2.23,2.23,0,0,1-.88-.92A2.77,2.77,0,0,1,14,25.93ZM45.62,85.62A39.56,39.56,0,0,1,8.88,31.27,16.47,16.47,0,0,0,32.09,22a21.92,21.92,0,0,1,10,8.44A28.61,28.61,0,0,1,45.79,39c2.57-8.36,6.77-14.56,14.75-17.29a19.82,19.82,0,0,1,18.61,3.22A39.58,39.58,0,0,1,45.62,85.62Z"/><path d="M67.67,37.16a6.42,6.42,0,0,0-.88,0,7.53,7.53,0,0,0-7.31,7.76,7.22,7.22,0,0,0,0,.93,7.51,7.51,0,0,0,7.93,7.07,7.87,7.87,0,0,0,.27-15.73Zm-.27,11A2.73,2.73,0,0,1,64.28,45a3,3,0,0,1,0-.52,2.86,2.86,0,0,1,3.18-2.51c1.91,0,2.73,1.34,3.06,3.11C70.21,47,69.28,48.17,67.4,48.11Z"/><path d="M25.6,37.16A7.87,7.87,0,1,0,33.47,45,7.86,7.86,0,0,0,25.6,37.16Zm3.22,8.29a2.93,2.93,0,0,1-3.14,2.69h-.46A2.89,2.89,0,0,1,22.57,45a2.17,2.17,0,0,1,0-.51,2.86,2.86,0,0,1,3.14-2.57h.39a2.92,2.92,0,0,1,2.72,3.11A2.67,2.67,0,0,1,28.82,45.45Z"/><path d="M45.84,51.69a3.65,3.65,0,0,0-3.36,3.42,10.58,10.58,0,0,0,3.34,5.68,10.1,10.1,0,0,0,3.36-5.63C49.45,53.38,47.37,51.69,45.84,51.69Z"/></g></g>
  </symbol>

  <symbol id="CH_KEY" viewBox="0 0 90.73 89.54">
    <title>Chouettos</title>
    <defs><style>.cls-1{fill:#fff;}</style></defs><g id="Calque_2" data-name="Calque 2"><g id="Calque_7" data-name="Calque 7"><path class="cls-1" d="M88.84,45.83A43.66,43.66,0,1,1,62.14,5.55C60.49,8.88,61.87,14.6,64.05,16s8.68.6,11.13-1.94A43.6,43.6,0,0,1,88.84,45.83Z"/><path d="M84.25,39.6A39.62,39.62,0,1,1,5.51,45.83a39.4,39.4,0,0,1,5.86-20.72c8-6.93,22-7.14,30.15,5.15a28.56,28.56,0,0,1,3.74,8.58c2.33-7.57,6-13.36,12.6-16.42a16.63,16.63,0,0,1-3.16-3.68,1.37,1.37,0,0,0-.2.13,24,24,0,0,0-9.21,12.92C41.68,21.66,30.78,12.42,19.4,15.73a39.41,39.41,0,0,1,33.12-8.8A16.27,16.27,0,0,1,53.82,3,43.62,43.62,0,0,0,2,38.66l0,.07,0,0a43.71,43.71,0,1,0,86.84,7.12,44,44,0,0,0-.54-6.73A11.39,11.39,0,0,1,84.25,39.6Z"/><path d="M59,44.71A7.54,7.54,0,0,1,66.29,37a8.53,8.53,0,0,1,.88,0,7.87,7.87,0,0,1-.27,15.74A7.53,7.53,0,0,1,59,45.64,7.22,7.22,0,0,1,59,44.71ZM70,44.88c-.33-1.78-1.15-3.12-3.06-3.12a2.87,2.87,0,0,0-3.18,2.52,2.9,2.9,0,0,0,0,.51A2.74,2.74,0,0,0,66,47.93a2.48,2.48,0,0,0,.86,0C68.78,48,69.71,46.81,70,44.88Z"/><path d="M25.1,37a7.87,7.87,0,1,1-7.87,7.87A7.87,7.87,0,0,1,25.1,37Zm3.22,7.9a2.92,2.92,0,0,0-2.72-3.12h-.39a2.87,2.87,0,0,0-3.14,2.57,2.26,2.26,0,0,0,0,.52A2.88,2.88,0,0,0,24.72,48h.46a2.92,2.92,0,0,0,3.14-2.69A2.54,2.54,0,0,0,28.32,44.88Z"/><path d="M45.32,60.61A10.58,10.58,0,0,1,42,54.93a3.65,3.65,0,0,1,3.36-3.42c1.53,0,3.61,1.7,3.34,3.47A10.1,10.1,0,0,1,45.32,60.61Z"/><path d="M79.41,33.6a2.44,2.44,0,0,1-2.16-1.52,2.17,2.17,0,0,1,.54-2.46l3.68-3.68L74,18.43l-.17.09a10.07,10.07,0,0,1-5.05,1.38A10,10,0,0,1,60.3,4.67a10.17,10.17,0,0,1,1.39-1.76,9.92,9.92,0,0,1,14,0A10.08,10.08,0,0,1,77.3,15l-.09.16L90,28a2.1,2.1,0,0,1,.53,2.39,2.48,2.48,0,0,1-2.2,1.54h0A2.11,2.11,0,0,1,87,31.41l-.09-.07a.81.81,0,0,1-.1-.09l-2.07-2.07L81,32.86A2.26,2.26,0,0,1,79.41,33.6Zm-10.7-29a5.27,5.27,0,0,0-3.77,1.57,1.57,1.57,0,0,0-.21.24l-.1.13a5.33,5.33,0,0,0,7.86,7.18,5.69,5.69,0,0,0,.92-1.29,5.32,5.32,0,0,0-4.7-7.83Z"/></g></g>
 </symbol>

 <symbol id="CH_KEY_INF" viewBox="0 0 90.73 89.54">
    <title>Chouettos</title>
    <defs><style>.cls-1{fill:#fff;}</style></defs><g id="Calque_2" data-name="Calque 2"><g id="Calque_7" data-name="Calque 7"><path class="cls-1" d="M88.84,45.83A43.66,43.66,0,1,1,62.14,5.55C60.49,8.88,61.87,14.6,64.05,16s8.68.6,11.13-1.94A43.6,43.6,0,0,1,88.84,45.83Z"/><path d="M84.25,39.6A39.62,39.62,0,1,1,5.51,45.83a39.4,39.4,0,0,1,5.86-20.72c8-6.93,22-7.14,30.15,5.15a28.56,28.56,0,0,1,3.74,8.58c2.33-7.57,6-13.36,12.6-16.42a16.63,16.63,0,0,1-3.16-3.68,1.37,1.37,0,0,0-.2.13,24,24,0,0,0-9.21,12.92C41.68,21.66,30.78,12.42,19.4,15.73a39.41,39.41,0,0,1,33.12-8.8A16.27,16.27,0,0,1,53.82,3,43.62,43.62,0,0,0,2,38.66l0,.07,0,0a43.71,43.71,0,1,0,86.84,7.12,44,44,0,0,0-.54-6.73A11.39,11.39,0,0,1,84.25,39.6Z"/><path d="M59,44.71A7.54,7.54,0,0,1,66.29,37a8.53,8.53,0,0,1,.88,0,7.87,7.87,0,0,1-.27,15.74A7.53,7.53,0,0,1,59,45.64,7.22,7.22,0,0,1,59,44.71ZM70,44.88c-.33-1.78-1.15-3.12-3.06-3.12a2.87,2.87,0,0,0-3.18,2.52,2.9,2.9,0,0,0,0,.51A2.74,2.74,0,0,0,66,47.93a2.48,2.48,0,0,0,.86,0C68.78,48,69.71,46.81,70,44.88Z"/><path d="M25.1,37a7.87,7.87,0,1,1-7.87,7.87A7.87,7.87,0,0,1,25.1,37Zm3.22,7.9a2.92,2.92,0,0,0-2.72-3.12h-.39a2.87,2.87,0,0,0-3.14,2.57,2.26,2.26,0,0,0,0,.52A2.88,2.88,0,0,0,24.72,48h.46a2.92,2.92,0,0,0,3.14-2.69A2.54,2.54,0,0,0,28.32,44.88Z"/><path d="M45.32,60.61A10.58,10.58,0,0,1,42,54.93a3.65,3.65,0,0,1,3.36-3.42c1.53,0,3.61,1.7,3.34,3.47A10.1,10.1,0,0,1,45.32,60.61Z"/><circle cx="16" cy="16.46" r="16"/><path class="cls-1" d="M14.76,27.66a2.32,2.32,0,0,1-.85-.88,2.77,2.77,0,0,1-.3-1.3V15.74a2.77,2.77,0,0,1,.3-1.3,2.25,2.25,0,0,1,.85-.88,2.64,2.64,0,0,1,2.48,0,2.25,2.25,0,0,1,.85.88,2.77,2.77,0,0,1,.3,1.3v9.74a2.77,2.77,0,0,1-.3,1.3,2.32,2.32,0,0,1-.85.88,2.63,2.63,0,0,1-2.48,0Zm0-18.36a2.07,2.07,0,0,1-.83-.83,2.39,2.39,0,0,1-.3-1.19,2.35,2.35,0,0,1,.3-1.18,2,2,0,0,1,.83-.84,2.64,2.64,0,0,1,2.48,0,2,2,0,0,1,.83.84,2.35,2.35,0,0,1,.3,1.18,2.39,2.39,0,0,1-.3,1.19,2.07,2.07,0,0,1-.83.83,2.63,2.63,0,0,1-2.48,0Z"/><path d="M79.41,33.6a2.44,2.44,0,0,1-2.16-1.52,2.17,2.17,0,0,1,.54-2.46l3.68-3.68L74,18.43l-.17.09a10.07,10.07,0,0,1-5.05,1.38A10,10,0,0,1,60.3,4.67a10.17,10.17,0,0,1,1.39-1.76,9.92,9.92,0,0,1,14,0A10.08,10.08,0,0,1,77.3,15l-.09.16L90,28a2.1,2.1,0,0,1,.53,2.39,2.48,2.48,0,0,1-2.2,1.54h0A2.11,2.11,0,0,1,87,31.41l-.09-.07a.81.81,0,0,1-.1-.09l-2.07-2.07L81,32.86A2.26,2.26,0,0,1,79.41,33.6Zm-10.7-29a5.27,5.27,0,0,0-3.77,1.57,1.57,1.57,0,0,0-.21.24l-.1.13a5.33,5.33,0,0,0,7.86,7.18,5.69,5.69,0,0,0,.92-1.29,5.32,5.32,0,0,0-4.7-7.83Z"/></g></g>
  </symbol>

  <symbol id="GH" viewBox="0 0 32 32">
    <title>GH</title>
    <circle fill="#fff" cx="16" cy="16" r="15.25"/>
    <path d="M16,1.5A14.5,14.5,0,1,1,1.5,16,14.51,14.51,0,0,1,16,1.5M16,0A16,16,0,1,0,32,16,16,16,0,0,0,16,0Z"/>
    <path d="M12.94,15h1.73v3.92a5.63,5.63,0,0,1-1.77.93,7,7,0,0,1-2.08.32,5.65,5.65,0,0,1-2.71-.65,4.87,4.87,0,0,1-1.9-1.81,5.24,5.24,0,0,1,0-5.2,4.87,4.87,0,0,1,1.9-1.81A5.8,5.8,0,0,1,10.85,10a6,6,0,0,1,2.25.41,4.47,4.47,0,0,1,1.7,1.19l-1.15,1.13a3.72,3.72,0,0,0-2.72-1.13A3.86,3.86,0,0,0,9.08,12a3.21,3.21,0,0,0-1.26,1.22,3.5,3.5,0,0,0-.46,1.8,3.39,3.39,0,0,0,.46,1.77,3.26,3.26,0,0,0,1.26,1.24,3.72,3.72,0,0,0,1.84.45,3.91,3.91,0,0,0,2-.51Z"/>
    <path d="M25.82,10.14V20H24V15.76H18.9V20H17.07V10.14H18.9V14.2H24V10.14Z"/>
    <rect x="11.03" y="14.95" width="3.65" height="1.31"/>
  </symbol>

  <symbol id="GH_KEY" viewBox="0 0 89.32 89.72">
    <title>GH</title>
    <defs><style>.cls-1{fill:#fff;}</style></defs><g id="Calque_2" data-name="Calque 2"><g id="Calque_7" data-name="Calque 7"><path class="cls-1" d="M87.43,46A43.69,43.69,0,1,1,60.73,5.73c-1.65,3.32-.27,9,1.91,10.47s8.68.6,11.13-1.94A43.6,43.6,0,0,1,87.43,46Z"/><path d="M82.8,39.6A39.61,39.61,0,1,1,43.71,6.39a39,39,0,0,1,7.38.71,16.22,16.22,0,0,1,1.24-3.93A43.79,43.79,0,1,0,86.87,39.11,11.47,11.47,0,0,1,82.8,39.6Z"/><path d="M26.18,36.8a10.26,10.26,0,0,1,4.93-1.07,9.89,9.89,0,0,1,7.23,3l3.06-3a11.91,11.91,0,0,0-4.52-3.16,15.74,15.74,0,0,0-6-1.09,15.49,15.49,0,0,0-7.29,1.86,13,13,0,0,0-5.05,4.81,14,14,0,0,0,0,13.84A13,13,0,0,0,23.6,56.8a15.1,15.1,0,0,0,7.21,1.73,18.57,18.57,0,0,0,5.54-.85,14.71,14.71,0,0,0,4.7-2.47V48.13h0V44.64H31.37v3.49h5.06l0,4.55A10.33,10.33,0,0,1,31.08,54a10,10,0,0,1-4.9-1.19,8.77,8.77,0,0,1-3.35-3.3,9.06,9.06,0,0,1-1.22-4.71A9.34,9.34,0,0,1,22.83,40,8.62,8.62,0,0,1,26.18,36.8Z"/><polygon points="65.87 31.85 65.87 42.65 52.31 42.65 52.31 31.85 47.44 31.85 47.44 58.08 52.31 58.08 52.31 46.8 65.87 46.8 65.87 58.08 70.71 58.08 70.71 31.85 65.87 31.85"/><path d="M78,33.6a2.44,2.44,0,0,1-2.16-1.52,2.17,2.17,0,0,1,.54-2.46l3.68-3.68-7.51-7.51-.17.09a10.07,10.07,0,0,1-5,1.38A10,10,0,0,1,58.89,4.67a10.17,10.17,0,0,1,1.39-1.76,9.92,9.92,0,0,1,14,0A10.08,10.08,0,0,1,75.89,15l-.09.16L88.62,28a2.1,2.1,0,0,1,.53,2.39A2.48,2.48,0,0,1,87,31.94h0a2.11,2.11,0,0,1-1.38-.53l-.09-.07a.81.81,0,0,1-.1-.09l-2.07-2.07-3.69,3.68A2.26,2.26,0,0,1,78,33.6Zm-10.7-29a5.31,5.31,0,0,0-3.78,1.57,2.31,2.31,0,0,0-.2.24l-.1.13a5.33,5.33,0,0,0,7.86,7.18A5.69,5.69,0,0,0,72,12.42a5.32,5.32,0,0,0-4.7-7.83Z"/></g></g>
  </symbol>

  <symbol id="GH_INF" viewBox="0 0 88.61 89">
    <title>GH</title>
    <defs><style>.cls-1{fill:#fff;}</style></defs><g id="Calque_2" data-name="Calque 2"><g id="Calque_5" data-name="Calque 5"><circle class="cls-1" cx="45.62" cy="45.87" r="43.71"/><path d="M45.62,6.26A39.61,39.61,0,1,1,6,45.87,39.66,39.66,0,0,1,45.62,6.26m0-4.1A43.71,43.71,0,1,0,89.34,45.87,43.71,43.71,0,0,0,45.62,2.16Z"/><circle cx="16.5" cy="16.5" r="16.5"/><path class="cls-1" d="M15.23,28.05a2.27,2.27,0,0,1-.88-.91A2.82,2.82,0,0,1,14,25.8v-10a2.79,2.79,0,0,1,.32-1.34,2.21,2.21,0,0,1,.88-.91,2.42,2.42,0,0,1,1.27-.32,2.45,2.45,0,0,1,1.27.32,2.21,2.21,0,0,1,.88.91A2.79,2.79,0,0,1,19,15.76v10a2.82,2.82,0,0,1-.32,1.34,2.27,2.27,0,0,1-.88.91,2.55,2.55,0,0,1-1.27.32A2.52,2.52,0,0,1,15.23,28.05Zm0-18.93a2.18,2.18,0,0,1-.86-.87A2.48,2.48,0,0,1,14.06,7a2.51,2.51,0,0,1,.3-1.22A2.22,2.22,0,0,1,15.22,5a2.72,2.72,0,0,1,2.56,0,2.22,2.22,0,0,1,.86.86A2.51,2.51,0,0,1,18.94,7a2.48,2.48,0,0,1-.3,1.22,2.18,2.18,0,0,1-.86.87,2.72,2.72,0,0,1-2.56,0Z"/><path d="M28.1,36.66A10.31,10.31,0,0,1,33,35.6a9.85,9.85,0,0,1,7.23,3l3.06-3a11.94,11.94,0,0,0-4.52-3.17,16.13,16.13,0,0,0-6-1.09,15.31,15.31,0,0,0-7.28,1.87A12.86,12.86,0,0,0,20.46,38a13.93,13.93,0,0,0,0,13.83,13,13,0,0,0,5.06,4.82,15,15,0,0,0,7.2,1.73,18.58,18.58,0,0,0,5.54-.86A14.51,14.51,0,0,0,43,55.07V48h0V44.51H33.28V48h5.06l0,4.54A10.44,10.44,0,0,1,33,53.9a9.82,9.82,0,0,1-4.89-1.2,8.78,8.78,0,0,1-3.36-3.29,9.06,9.06,0,0,1-1.22-4.71,9.34,9.34,0,0,1,1.22-4.79A8.6,8.6,0,0,1,28.1,36.66Z"/><polygon points="67.78 31.72 67.78 42.52 54.22 42.52 54.22 31.72 49.35 31.72 49.35 57.94 54.22 57.94 54.22 46.66 67.78 46.66 67.78 57.94 72.62 57.94 72.62 31.72 67.78 31.72"/></g></g>
  </symbol>

  <symbol id="GH_KEY_INF" viewBox="0 0 91.23 89.72">
    <title>GH</title>
    <defs><style>.cls-1{fill:#fff;}</style></defs><g id="Calque_2" data-name="Calque 2"><g id="Calque_7" data-name="Calque 7"><path class="cls-1" d="M89.34,46A43.69,43.69,0,1,1,62.64,5.73c-1.65,3.32-.27,9,1.91,10.47s8.68.6,11.13-1.94A43.6,43.6,0,0,1,89.34,46Z"/><path d="M84.71,39.6A39.61,39.61,0,1,1,45.62,6.39,39,39,0,0,1,53,7.1a16.22,16.22,0,0,1,1.24-3.93A43.79,43.79,0,1,0,88.78,39.11,11.47,11.47,0,0,1,84.71,39.6Z"/><circle cx="16.5" cy="16.63" r="16.5"/><path class="cls-1" d="M15.23,28.18a2.21,2.21,0,0,1-.88-.91A2.79,2.79,0,0,1,14,25.93v-10a2.82,2.82,0,0,1,.32-1.34,2.27,2.27,0,0,1,.88-.91,2.52,2.52,0,0,1,1.27-.32,2.55,2.55,0,0,1,1.27.32,2.27,2.27,0,0,1,.88.91A2.82,2.82,0,0,1,19,15.89v10a2.79,2.79,0,0,1-.32,1.34,2.21,2.21,0,0,1-.88.91,2.45,2.45,0,0,1-1.27.32A2.42,2.42,0,0,1,15.23,28.18Zm0-18.93a2.22,2.22,0,0,1-.86-.86,2.51,2.51,0,0,1-.3-1.22A2.48,2.48,0,0,1,14.36,6a2.18,2.18,0,0,1,.86-.87,2.72,2.72,0,0,1,2.56,0,2.18,2.18,0,0,1,.86.87,2.48,2.48,0,0,1,.3,1.22,2.51,2.51,0,0,1-.3,1.22,2.22,2.22,0,0,1-.86.86,2.72,2.72,0,0,1-2.56,0Z"/><path d="M28.1,36.8A10.2,10.2,0,0,1,33,35.73a9.89,9.89,0,0,1,7.23,3l3.06-3a11.91,11.91,0,0,0-4.52-3.16,15.74,15.74,0,0,0-6-1.09,15.42,15.42,0,0,0-7.28,1.86,12.93,12.93,0,0,0-5.06,4.81,14,14,0,0,0,0,13.84,12.93,12.93,0,0,0,5.06,4.81,15,15,0,0,0,7.2,1.73,18.57,18.57,0,0,0,5.54-.85A14.71,14.71,0,0,0,43,55.21V48.13h0V44.64H33.28v3.49h5.06l0,4.55A10.33,10.33,0,0,1,33,54a9.91,9.91,0,0,1-4.89-1.19,8.73,8.73,0,0,1-3.36-3.3,9.06,9.06,0,0,1-1.22-4.71A9.34,9.34,0,0,1,24.74,40,8.58,8.58,0,0,1,28.1,36.8Z"/><polygon points="67.78 31.85 67.78 42.65 54.22 42.65 54.22 31.85 49.35 31.85 49.35 58.08 54.22 58.08 54.22 46.8 67.78 46.8 67.78 58.08 72.62 58.08 72.62 31.85 67.78 31.85"/><path d="M79.91,33.6a2.44,2.44,0,0,1-2.16-1.52,2.17,2.17,0,0,1,.54-2.46L82,25.94l-7.51-7.51-.17.09a10.07,10.07,0,0,1-5.05,1.38A10,10,0,0,1,60.8,4.67a10.17,10.17,0,0,1,1.39-1.76,9.92,9.92,0,0,1,14,0A10.08,10.08,0,0,1,77.8,15l-.09.16L90.53,28a2.1,2.1,0,0,1,.53,2.39,2.48,2.48,0,0,1-2.2,1.54h0a2.11,2.11,0,0,1-1.38-.53l-.09-.07a.81.81,0,0,1-.1-.09l-2.07-2.07-3.69,3.68A2.26,2.26,0,0,1,79.91,33.6Zm-10.7-29a5.27,5.27,0,0,0-3.77,1.57,1.57,1.57,0,0,0-.21.24l-.1.13A5.33,5.33,0,0,0,73,13.71a5.69,5.69,0,0,0,.92-1.29,5.32,5.32,0,0,0-4.7-7.83Z"/></g></g>
  </symbol>

  <symbol id="GHF" viewBox="0 0 32 32">
    <title>GH formateur·ice</title>
    <circle fill="#fff" cx="16" cy="16" r="15.25"/>
    <path d="M16,1.5A14.5,14.5,0,1,1,1.5,16,14.51,14.51,0,0,1,16,1.5M16,0A16,16,0,1,0,32,16,16,16,0,0,0,16,0Z"/>
    <path d="M12.94,15h1.73v3.92a5.52,5.52,0,0,1-1.77.93,7,7,0,0,1-2.08.32,5.65,5.65,0,0,1-2.71-.65,4.87,4.87,0,0,1-1.9-1.81,5.24,5.24,0,0,1,0-5.2,4.87,4.87,0,0,1,1.9-1.81A5.8,5.8,0,0,1,10.85,10a6,6,0,0,1,2.25.41,4.47,4.47,0,0,1,1.7,1.19l-1.15,1.13a3.72,3.72,0,0,0-2.72-1.13A3.86,3.86,0,0,0,9.08,12a3.21,3.21,0,0,0-1.26,1.22,3.5,3.5,0,0,0-.46,1.8,3.39,3.39,0,0,0,.46,1.77,3.26,3.26,0,0,0,1.26,1.24,3.72,3.72,0,0,0,1.84.45,3.91,3.91,0,0,0,2-.51Z"/>
    <path d="M25.82,10.14V20H24V15.76H18.9V20H17.07V10.14H18.9V14.2H24V10.14Z"/>
    <circle cx="26.75" cy="26.75" r="5.25"/>
    <rect x="11.03" y="14.95" width="3.65" height="1.31"/>
  </symbol>

  <symbol id="GHF_KEY" viewBox="0 0 89.32 89.72">
    <title>GH formateur·ice</title>
    <defs><style>.cls-1{fill:#fff;}</style></defs><g id="Calque_2" data-name="Calque 2"><g id="Calque_7" data-name="Calque 7"><path class="cls-1" d="M87.43,46A43.69,43.69,0,1,1,60.73,5.73c-1.65,3.32-.27,9,1.91,10.47s8.68.6,11.13-1.94A43.6,43.6,0,0,1,87.43,46Z"/><path d="M82.8,39.6A39.61,39.61,0,1,1,43.71,6.39a39,39,0,0,1,7.38.71,16.22,16.22,0,0,1,1.24-3.93A43.79,43.79,0,1,0,86.87,39.11,11.47,11.47,0,0,1,82.8,39.6Z"/><circle cx="73.33" cy="75.37" r="14.34"/><path d="M26.18,36.8a10.26,10.26,0,0,1,4.93-1.07,9.89,9.89,0,0,1,7.23,3l3.06-3a11.91,11.91,0,0,0-4.52-3.16,15.74,15.74,0,0,0-6-1.09,15.49,15.49,0,0,0-7.29,1.86,13,13,0,0,0-5.05,4.81,14,14,0,0,0,0,13.84A13,13,0,0,0,23.6,56.8a15.1,15.1,0,0,0,7.21,1.73,18.57,18.57,0,0,0,5.54-.85,14.71,14.71,0,0,0,4.7-2.47V48.13h0V44.64H31.37v3.49h5.06l0,4.55A10.33,10.33,0,0,1,31.08,54a10,10,0,0,1-4.9-1.19,8.77,8.77,0,0,1-3.35-3.3,9.06,9.06,0,0,1-1.22-4.71A9.34,9.34,0,0,1,22.83,40,8.62,8.62,0,0,1,26.18,36.8Z"/><polygon points="65.87 31.85 65.87 42.65 52.31 42.65 52.31 31.85 47.44 31.85 47.44 58.08 52.31 58.08 52.31 46.8 65.87 46.8 65.87 58.08 70.71 58.08 70.71 31.85 65.87 31.85"/><path d="M78,33.6a2.44,2.44,0,0,1-2.16-1.52,2.17,2.17,0,0,1,.54-2.46l3.68-3.68-7.51-7.51-.17.09a10.07,10.07,0,0,1-5,1.38A10,10,0,0,1,58.89,4.67a10.17,10.17,0,0,1,1.39-1.76,9.92,9.92,0,0,1,14,0A10.08,10.08,0,0,1,75.89,15l-.09.16L88.62,28a2.1,2.1,0,0,1,.53,2.39A2.48,2.48,0,0,1,87,31.94h0a2.11,2.11,0,0,1-1.38-.53l-.09-.07a.81.81,0,0,1-.1-.09l-2.07-2.07-3.69,3.68A2.26,2.26,0,0,1,78,33.6Zm-10.7-29a5.31,5.31,0,0,0-3.78,1.57,2.31,2.31,0,0,0-.2.24l-.1.13a5.33,5.33,0,0,0,7.86,7.18A5.69,5.69,0,0,0,72,12.42a5.32,5.32,0,0,0-4.7-7.83Z"/></g></g>
  </symbol>

  <symbol id="GHF_INF" viewBox="0 0 91.21 89.72">
    <title>GH formateur·ice</title>
    <defs><style>.cls-1{fill:#fff;}.cls-2{fill:none;}</style></defs><g id="Calque_2" data-name="Calque 2"><g id="Calque_5" data-name="Calque 5"><circle class="cls-1" cx="45.62" cy="46.01" r="43.71"/><path d="M45.62,6.39A39.62,39.62,0,1,1,6,46,39.67,39.67,0,0,1,45.62,6.39m0-4.1A43.72,43.72,0,1,0,89.34,46,43.72,43.72,0,0,0,45.62,2.29Z"/><circle cx="75.24" cy="75.38" r="14.34"/><circle cx="16.5" cy="16.64" r="16.5"/><path class="cls-1" d="M15.23,28.19a2.23,2.23,0,0,1-.88-.92A2.77,2.77,0,0,1,14,25.93v-10a2.79,2.79,0,0,1,.32-1.34,2.21,2.21,0,0,1,.88-.91,2.43,2.43,0,0,1,1.27-.33,2.45,2.45,0,0,1,1.27.33,2.21,2.21,0,0,1,.88.91A2.79,2.79,0,0,1,19,15.9v10a2.77,2.77,0,0,1-.32,1.34,2.23,2.23,0,0,1-.88.92,2.55,2.55,0,0,1-1.27.32A2.52,2.52,0,0,1,15.23,28.19Zm0-18.93a2.18,2.18,0,0,1-.86-.87,2.48,2.48,0,0,1-.3-1.22A2.48,2.48,0,0,1,14.36,6a2.25,2.25,0,0,1,.86-.87,2.8,2.8,0,0,1,2.56,0,2.25,2.25,0,0,1,.86.87,2.48,2.48,0,0,1,.3,1.22,2.48,2.48,0,0,1-.3,1.22,2.18,2.18,0,0,1-.86.87,2.8,2.8,0,0,1-2.56,0Z"/><path class="cls-2" d="M90.45,27.66,78,15.16A10.19,10.19,0,0,0,76.36,2.94h0a10,10,0,0,0-14.18,0,10.31,10.31,0,0,0-1.41,1.78,10.05,10.05,0,0,0,13.63,14l7.09,7.09L78,29.24c-2.33,2.34,1.12,6,3.54,3.55L85,29.34,86.9,31.2c.07.07.14.11.2.17C89.43,33.32,92.71,29.92,90.45,27.66ZM72.81,13.57a5,5,0,0,1-7.37-6.74c.1-.11.18-.24.29-.35a5,5,0,0,1,8,5.88A4.82,4.82,0,0,1,72.81,13.57Z"/><path d="M28.1,36.8A10.19,10.19,0,0,1,33,35.74a9.88,9.88,0,0,1,7.23,3l3.06-3a11.94,11.94,0,0,0-4.52-3.17,16.13,16.13,0,0,0-6-1.09,15.42,15.42,0,0,0-7.28,1.86,13,13,0,0,0-5.06,4.82,13.93,13.93,0,0,0,0,13.83,13,13,0,0,0,5.06,4.82,15,15,0,0,0,7.2,1.72,18.57,18.57,0,0,0,5.54-.85A14.71,14.71,0,0,0,43,55.21V48.13h0V44.65H33.28v3.48h5.06l0,4.55A10.44,10.44,0,0,1,33,54a9.82,9.82,0,0,1-4.89-1.2,8.73,8.73,0,0,1-3.36-3.3,9,9,0,0,1-1.22-4.7,9.32,9.32,0,0,1,1.22-4.79A8.6,8.6,0,0,1,28.1,36.8Z"/><polygon points="67.78 31.85 67.78 42.65 54.22 42.65 54.22 31.85 49.35 31.85 49.35 58.08 54.22 58.08 54.22 46.8 67.78 46.8 67.78 58.08 72.62 58.08 72.62 31.85 67.78 31.85"/></g></g>
  </symbol>

  <symbol id="GHF_KEY_INF" viewBox="0 0 91.23 89.72">
    <title>GH formateur·ice</title>
    <defs><style>.cls-1{fill:#fff;}</style></defs><g id="Calque_2" data-name="Calque 2"><g id="Calque_7" data-name="Calque 7"><path class="cls-1" d="M89.34,46A43.69,43.69,0,1,1,62.64,5.73c-1.65,3.32-.27,9,1.91,10.47s8.68.6,11.13-1.94A43.6,43.6,0,0,1,89.34,46Z"/><path d="M84.71,39.6A39.61,39.61,0,1,1,45.62,6.39,39,39,0,0,1,53,7.1a16.22,16.22,0,0,1,1.24-3.93A43.79,43.79,0,1,0,88.78,39.11,11.47,11.47,0,0,1,84.71,39.6Z"/><circle cx="75.24" cy="75.37" r="14.34"/><circle cx="16.5" cy="16.63" r="16.5"/><path class="cls-1" d="M15.23,28.18a2.21,2.21,0,0,1-.88-.91A2.79,2.79,0,0,1,14,25.93v-10a2.82,2.82,0,0,1,.32-1.34,2.27,2.27,0,0,1,.88-.91,2.52,2.52,0,0,1,1.27-.32,2.55,2.55,0,0,1,1.27.32,2.27,2.27,0,0,1,.88.91A2.82,2.82,0,0,1,19,15.89v10a2.79,2.79,0,0,1-.32,1.34,2.21,2.21,0,0,1-.88.91,2.45,2.45,0,0,1-1.27.32A2.42,2.42,0,0,1,15.23,28.18Zm0-18.93a2.22,2.22,0,0,1-.86-.86,2.51,2.51,0,0,1-.3-1.22A2.48,2.48,0,0,1,14.36,6a2.18,2.18,0,0,1,.86-.87,2.72,2.72,0,0,1,2.56,0,2.18,2.18,0,0,1,.86.87,2.48,2.48,0,0,1,.3,1.22,2.51,2.51,0,0,1-.3,1.22,2.22,2.22,0,0,1-.86.86,2.72,2.72,0,0,1-2.56,0Z"/><path d="M28.1,36.8A10.2,10.2,0,0,1,33,35.73a9.89,9.89,0,0,1,7.23,3l3.06-3a11.91,11.91,0,0,0-4.52-3.16,15.74,15.74,0,0,0-6-1.09,15.42,15.42,0,0,0-7.28,1.86,12.93,12.93,0,0,0-5.06,4.81,14,14,0,0,0,0,13.84,12.93,12.93,0,0,0,5.06,4.81,15,15,0,0,0,7.2,1.73,18.57,18.57,0,0,0,5.54-.85A14.71,14.71,0,0,0,43,55.21V48.13h0V44.64H33.28v3.49h5.06l0,4.55A10.33,10.33,0,0,1,33,54a9.91,9.91,0,0,1-4.89-1.19,8.73,8.73,0,0,1-3.36-3.3,9.06,9.06,0,0,1-1.22-4.71A9.34,9.34,0,0,1,24.74,40,8.58,8.58,0,0,1,28.1,36.8Z"/><polygon points="67.78 31.85 67.78 42.65 54.22 42.65 54.22 31.85 49.35 31.85 49.35 58.08 54.22 58.08 54.22 46.8 67.78 46.8 67.78 58.08 72.62 58.08 72.62 31.85 67.78 31.85"/><path d="M79.91,33.6a2.44,2.44,0,0,1-2.16-1.52,2.17,2.17,0,0,1,.54-2.46L82,25.94l-7.51-7.51-.17.09a10.07,10.07,0,0,1-5.05,1.38A10,10,0,0,1,60.8,4.67a10.17,10.17,0,0,1,1.39-1.76,9.92,9.92,0,0,1,14,0A10.08,10.08,0,0,1,77.8,15l-.09.16L90.53,28a2.1,2.1,0,0,1,.53,2.39,2.48,2.48,0,0,1-2.2,1.54h0a2.11,2.11,0,0,1-1.38-.53l-.09-.07a.81.81,0,0,1-.1-.09l-2.07-2.07-3.69,3.68A2.26,2.26,0,0,1,79.91,33.6Zm-10.7-29a5.27,5.27,0,0,0-3.77,1.57,1.57,1.57,0,0,0-.21.24l-.1.13A5.33,5.33,0,0,0,73,13.71a5.69,5.69,0,0,0,.92-1.29,5.32,5.32,0,0,0-4.7-7.83Z"/></g></g>
  </symbol>

  <symbol id="P" viewBox="0 0 32 32">
    <title>PIAF</title>
    <circle fill="#fff" cx="16" cy="16" r="15.25"/>
    <path d="M16,1.5A14.5,14.5,0,1,1,1.5,16,14.51,14.51,0,0,1,16,1.5M16,0A16,16,0,1,0,32,16,16,16,0,0,0,16,0Z"/>
  </symbol>

  <symbol id="KEY" viewBox="0 0 89.32 89.7">
    <title>KEY</title>
    <g id="Calque_2" data-name="Calque 2"><g id="Calque_7" data-name="Calque 7"><path d="M82.8,39.59A39.72,39.72,0,1,1,51.09,7.08a16.36,16.36,0,0,1,1.24-3.93A43.79,43.79,0,1,0,86.87,39.09,11.71,11.71,0,0,1,82.8,39.59Z"/><path d="M78,33.6a2.44,2.44,0,0,1-2.16-1.52,2.17,2.17,0,0,1,.54-2.46l3.68-3.68-7.51-7.51-.17.09a10.07,10.07,0,0,1-5,1.38A10,10,0,0,1,58.89,4.67a10.17,10.17,0,0,1,1.39-1.76,9.92,9.92,0,0,1,14,0A10.08,10.08,0,0,1,75.89,15l-.09.16L88.62,28a2.1,2.1,0,0,1,.53,2.39A2.48,2.48,0,0,1,87,31.94h0a2.11,2.11,0,0,1-1.38-.53l-.09-.07a.81.81,0,0,1-.1-.09l-2.07-2.07-3.69,3.68A2.26,2.26,0,0,1,78,33.6Zm-10.7-29a5.31,5.31,0,0,0-3.78,1.57,2.31,2.31,0,0,0-.2.24l-.1.13a5.33,5.33,0,0,0,7.86,7.18A5.69,5.69,0,0,0,72,12.42a5.32,5.32,0,0,0-4.7-7.83Z"/></g></g>
  </symbol>

  <symbol id="INF" viewBox="0 0 89.34 89.58">
    <title>Commentaire ajouté</title>
    <defs><style>.cls-1{fill:#fff;}</style></defs>
    <g id="Calque_2" data-name="Calque 2">
    <g id="Calque_5" data-name="Calque 5">
    <path d="M45.62,6.26A39.61,39.61,0,1,1,6,45.87,39.66,39.66,0,0,1,45.62,6.26m0-4.1A43.71,43.71,0,1,0,89.34,45.87,43.71,43.71,0,0,0,45.62,2.16Z"/>
    <circle cx="16.5" cy="16.5" r="16.5"/>
    <path class="cls-1" d="M15.23,28.05a2.27,2.27,0,0,1-.88-.91A2.82,2.82,0,0,1,14,25.8v-10a2.79,2.79,0,0,1,.32-1.34,2.21,2.21,0,0,1,.88-.91,2.42,2.42,0,0,1,1.27-.32,2.45,2.45,0,0,1,1.27.32,2.21,2.21,0,0,1,.88.91A2.79,2.79,0,0,1,19,15.76v10a2.82,2.82,0,0,1-.32,1.34,2.27,2.27,0,0,1-.88.91,2.55,2.55,0,0,1-1.27.32A2.52,2.52,0,0,1,15.23,28.05Zm0-18.93a2.18,2.18,0,0,1-.86-.87A2.48,2.48,0,0,1,14.06,7a2.51,2.51,0,0,1,.3-1.22A2.22,2.22,0,0,1,15.22,5a2.72,2.72,0,0,1,2.56,0,2.22,2.22,0,0,1,.86.86A2.51,2.51,0,0,1,18.94,7a2.48,2.48,0,0,1-.3,1.22,2.18,2.18,0,0,1-.86.87,2.72,2.72,0,0,1-2.56,0Z"/></g></g>
  </symbol>
</svg>
